solid OpenSCAD_Model
  facet normal 0 0 -1
    outer loop
      vertex 10.995 -21 0
      vertex 8 21 0
      vertex 10.995 21 0
    endloop
  endfacet
  facet normal 0 0 -1
    outer loop
      vertex 10.995 -21 0
      vertex 8 -21 0
      vertex 8 21 0
    endloop
  endfacet
  facet normal -0 -0 -1
    outer loop
      vertex 23.75 -30 0
      vertex 23.75 -40 0
      vertex 21.5 -30 0
    endloop
  endfacet
  facet normal 0 0 -1
    outer loop
      vertex -8 27 0
      vertex 8 -21 0
      vertex -8 -27 0
    endloop
  endfacet
  facet normal -0 -0 -1
    outer loop
      vertex 8 21 0
      vertex 8 -21 0
      vertex -8 27 0
    endloop
  endfacet
  facet normal -0 -0 -1
    outer loop
      vertex 8 27 0
      vertex 8 21 0
      vertex -8 27 0
    endloop
  endfacet
  facet normal 0 -0 -1
    outer loop
      vertex 8 -21 0
      vertex 8 -27 0
      vertex -8 -27 0
    endloop
  endfacet
  facet normal -0 0 -1
    outer loop
      vertex 13.5 -30 0
      vertex -14.25 -40 0
      vertex -10.51 -30 0
    endloop
  endfacet
  facet normal 0 0 -1
    outer loop
      vertex 11 -15 0
      vertex 19 0 0
      vertex 13.5 -15 0
    endloop
  endfacet
  facet normal -0 -0 -1
    outer loop
      vertex 21.5 -30 0
      vertex 23.75 -40 0
      vertex 13.5 -30 0
    endloop
  endfacet
  facet normal 0 -0 -1
    outer loop
      vertex 19 0 0
      vertex 21.5 0 0
      vertex 13.5 -15 0
    endloop
  endfacet
  facet normal 0 0 -1
    outer loop
      vertex 11 15 0
      vertex 19 15 0
      vertex 19 0 0
    endloop
  endfacet
  facet normal 0 0 -1
    outer loop
      vertex 11 -15 0
      vertex 11 15 0
      vertex 19 0 0
    endloop
  endfacet
  facet normal 0 0 -1
    outer loop
      vertex 13.5 -15 0
      vertex 21.5 0 0
      vertex 21.5 -30 0
    endloop
  endfacet
  facet normal -0 0 -1
    outer loop
      vertex -10.51 -30 0
      vertex -14.25 -40 0
      vertex -14.25 -30 0
    endloop
  endfacet
  facet normal 0 0 -1
    outer loop
      vertex 21.5 -30 0
      vertex 13.5 -30 0
      vertex 13.5 -15 0
    endloop
  endfacet
  facet normal -0 0 -1
    outer loop
      vertex -10.51 0 0
      vertex -14.25 -30 0
      vertex -15.51 0 0
    endloop
  endfacet
  facet normal 0 -0 -1
    outer loop
      vertex -10.51 0 0
      vertex -10.51 -30 0
      vertex -14.25 -30 0
    endloop
  endfacet
  facet normal 0 -0 -1
    outer loop
      vertex 13.5 -30 0
      vertex 23.75 -40 0
      vertex -14.25 -40 0
    endloop
  endfacet
  facet normal 0 0 -1
    outer loop
      vertex -15.51 0 0
      vertex -14.25 -30 0
      vertex -15.51 -30 0
    endloop
  endfacet
  facet normal 0 0 1
    outer loop
      vertex 10.995 21 8
      vertex 8 21 8
      vertex 10.995 -21 8
    endloop
  endfacet
  facet normal 0 0 1
    outer loop
      vertex 8 21 8
      vertex 8 -21 8
      vertex 10.995 -21 8
    endloop
  endfacet
  facet normal -0 0 1
    outer loop
      vertex 21.5 -30 8
      vertex 23.75 -40 8
      vertex 23.75 -30 8
    endloop
  endfacet
  facet normal 0 0 1
    outer loop
      vertex -8 -27 8
      vertex 8 -21 8
      vertex -8 27 8
    endloop
  endfacet
  facet normal 0 0 1
    outer loop
      vertex -8 27 8
      vertex 8 -21 8
      vertex 8 21 8
    endloop
  endfacet
  facet normal -0 0 1
    outer loop
      vertex -8 27 8
      vertex 8 21 8
      vertex 8 27 8
    endloop
  endfacet
  facet normal 0 0 1
    outer loop
      vertex -8 -27 8
      vertex 8 -27 8
      vertex 8 -21 8
    endloop
  endfacet
  facet normal -0 0 1
    outer loop
      vertex -10.51 -30 8
      vertex -14.25 -40 8
      vertex 13.5 -30 8
    endloop
  endfacet
  facet normal 0 -0 1
    outer loop
      vertex 13.5 -15 8
      vertex 19 0 8
      vertex 11 -15 8
    endloop
  endfacet
  facet normal -0 0 1
    outer loop
      vertex 13.5 -30 8
      vertex 23.75 -40 8
      vertex 21.5 -30 8
    endloop
  endfacet
  facet normal 0 0 1
    outer loop
      vertex 13.5 -15 8
      vertex 21.5 0 8
      vertex 19 0 8
    endloop
  endfacet
  facet normal 0 -0 1
    outer loop
      vertex 19 0 8
      vertex 19 15 8
      vertex 11 15 8
    endloop
  endfacet
  facet normal 0 0 1
    outer loop
      vertex 19 0 8
      vertex 11 15 8
      vertex 11 -15 8
    endloop
  endfacet
  facet normal 0 -0 1
    outer loop
      vertex 21.5 -30 8
      vertex 21.5 0 8
      vertex 13.5 -15 8
    endloop
  endfacet
  facet normal -0 0 1
    outer loop
      vertex -14.25 -30 8
      vertex -14.25 -40 8
      vertex -10.51 -30 8
    endloop
  endfacet
  facet normal 0 0 1
    outer loop
      vertex 13.5 -15 8
      vertex 13.5 -30 8
      vertex 21.5 -30 8
    endloop
  endfacet
  facet normal -0 0 1
    outer loop
      vertex -15.51 0 8
      vertex -14.25 -30 8
      vertex -10.51 0 8
    endloop
  endfacet
  facet normal 0 0 1
    outer loop
      vertex -14.25 -30 8
      vertex -10.51 -30 8
      vertex -10.51 0 8
    endloop
  endfacet
  facet normal 0 0 1
    outer loop
      vertex -14.25 -40 8
      vertex 23.75 -40 8
      vertex 13.5 -30 8
    endloop
  endfacet
  facet normal 0 0 1
    outer loop
      vertex -15.51 -30 8
      vertex -14.25 -30 8
      vertex -15.51 0 8
    endloop
  endfacet
  facet normal 0 -1 0
    outer loop
      vertex 10.995 -21 0
      vertex 8 -21 8
      vertex 8 -21 0
    endloop
  endfacet
  facet normal 0 -1 0
    outer loop
      vertex 10.995 -21 0
      vertex 10.995 -21 8
      vertex 8 -21 8
    endloop
  endfacet
  facet normal 1 0 0
    outer loop
      vertex 10.995 21 0
      vertex 10.995 -21 8
      vertex 10.995 -21 0
    endloop
  endfacet
  facet normal 1 0 -0
    outer loop
      vertex 10.995 21 0
      vertex 10.995 21 8
      vertex 10.995 -21 8
    endloop
  endfacet
  facet normal 0 1 0
    outer loop
      vertex 8 21 0
      vertex 10.995 21 8
      vertex 10.995 21 0
    endloop
  endfacet
  facet normal 0 1 0
    outer loop
      vertex 8 21 0
      vertex 8 21 8
      vertex 10.995 21 8
    endloop
  endfacet
  facet normal 1 0 0
    outer loop
      vertex 8 27 0
      vertex 8 21 8
      vertex 8 21 0
    endloop
  endfacet
  facet normal 1 0 -0
    outer loop
      vertex 8 27 0
      vertex 8 27 8
      vertex 8 21 8
    endloop
  endfacet
  facet normal 0 1 0
    outer loop
      vertex -8 27 0
      vertex 8 27 8
      vertex 8 27 0
    endloop
  endfacet
  facet normal 0 1 0
    outer loop
      vertex -8 27 0
      vertex -8 27 8
      vertex 8 27 8
    endloop
  endfacet
  facet normal -1 0 0
    outer loop
      vertex -8 -27 0
      vertex -8 27 8
      vertex -8 27 0
    endloop
  endfacet
  facet normal -1 0 0
    outer loop
      vertex -8 -27 0
      vertex -8 -27 8
      vertex -8 27 8
    endloop
  endfacet
  facet normal 0 -1 0
    outer loop
      vertex 8 -27 0
      vertex -8 -27 8
      vertex -8 -27 0
    endloop
  endfacet
  facet normal 0 -1 0
    outer loop
      vertex 8 -27 0
      vertex 8 -27 8
      vertex -8 -27 8
    endloop
  endfacet
  facet normal 1 0 0
    outer loop
      vertex 8 -21 0
      vertex 8 -27 8
      vertex 8 -27 0
    endloop
  endfacet
  facet normal 1 0 -0
    outer loop
      vertex 8 -21 0
      vertex 8 -21 8
      vertex 8 -27 8
    endloop
  endfacet
  facet normal 0 1 0
    outer loop
      vertex 21.5 -30 0
      vertex 23.75 -30 8
      vertex 23.75 -30 0
    endloop
  endfacet
  facet normal 0 1 0
    outer loop
      vertex 21.5 -30 0
      vertex 21.5 -30 8
      vertex 23.75 -30 8
    endloop
  endfacet
  facet normal 1 0 0
    outer loop
      vertex 21.5 0 0
      vertex 21.5 -30 8
      vertex 21.5 -30 0
    endloop
  endfacet
  facet normal 1 0 -0
    outer loop
      vertex 21.5 0 0
      vertex 21.5 0 8
      vertex 21.5 -30 8
    endloop
  endfacet
  facet normal 0 1 0
    outer loop
      vertex 19 0 0
      vertex 21.5 0 8
      vertex 21.5 0 0
    endloop
  endfacet
  facet normal 0 1 0
    outer loop
      vertex 19 0 0
      vertex 19 0 8
      vertex 21.5 0 8
    endloop
  endfacet
  facet normal 1 0 0
    outer loop
      vertex 19 15 0
      vertex 19 0 8
      vertex 19 0 0
    endloop
  endfacet
  facet normal 1 0 -0
    outer loop
      vertex 19 15 0
      vertex 19 15 8
      vertex 19 0 8
    endloop
  endfacet
  facet normal 0 1 0
    outer loop
      vertex 11 15 0
      vertex 19 15 8
      vertex 19 15 0
    endloop
  endfacet
  facet normal 0 1 0
    outer loop
      vertex 11 15 0
      vertex 11 15 8
      vertex 19 15 8
    endloop
  endfacet
  facet normal -1 0 0
    outer loop
      vertex 11 -15 0
      vertex 11 15 8
      vertex 11 15 0
    endloop
  endfacet
  facet normal -1 0 0
    outer loop
      vertex 11 -15 0
      vertex 11 -15 8
      vertex 11 15 8
    endloop
  endfacet
  facet normal 0 -1 0
    outer loop
      vertex 13.5 -15 0
      vertex 11 -15 8
      vertex 11 -15 0
    endloop
  endfacet
  facet normal 0 -1 0
    outer loop
      vertex 13.5 -15 0
      vertex 13.5 -15 8
      vertex 11 -15 8
    endloop
  endfacet
  facet normal -1 0 0
    outer loop
      vertex 13.5 -30 0
      vertex 13.5 -15 8
      vertex 13.5 -15 0
    endloop
  endfacet
  facet normal -1 0 0
    outer loop
      vertex 13.5 -30 0
      vertex 13.5 -30 8
      vertex 13.5 -15 8
    endloop
  endfacet
  facet normal 0 1 0
    outer loop
      vertex -10.51 -30 0
      vertex 13.5 -30 8
      vertex 13.5 -30 0
    endloop
  endfacet
  facet normal 0 1 0
    outer loop
      vertex -10.51 -30 0
      vertex -10.51 -30 8
      vertex 13.5 -30 8
    endloop
  endfacet
  facet normal 1 0 0
    outer loop
      vertex -10.51 0 0
      vertex -10.51 -30 8
      vertex -10.51 -30 0
    endloop
  endfacet
  facet normal 1 0 -0
    outer loop
      vertex -10.51 0 0
      vertex -10.51 0 8
      vertex -10.51 -30 8
    endloop
  endfacet
  facet normal 0 1 0
    outer loop
      vertex -15.51 0 0
      vertex -10.51 0 8
      vertex -10.51 0 0
    endloop
  endfacet
  facet normal 0 1 0
    outer loop
      vertex -15.51 0 0
      vertex -15.51 0 8
      vertex -10.51 0 8
    endloop
  endfacet
  facet normal -1 0 0
    outer loop
      vertex -15.51 -30 0
      vertex -15.51 0 8
      vertex -15.51 0 0
    endloop
  endfacet
  facet normal -1 0 0
    outer loop
      vertex -15.51 -30 0
      vertex -15.51 -30 8
      vertex -15.51 0 8
    endloop
  endfacet
  facet normal 0 -1 0
    outer loop
      vertex -14.25 -30 0
      vertex -15.51 -30 8
      vertex -15.51 -30 0
    endloop
  endfacet
  facet normal 0 -1 0
    outer loop
      vertex -14.25 -30 0
      vertex -14.25 -30 8
      vertex -15.51 -30 8
    endloop
  endfacet
  facet normal -1 0 0
    outer loop
      vertex -14.25 -40 0
      vertex -14.25 -30 8
      vertex -14.25 -30 0
    endloop
  endfacet
  facet normal -1 0 0
    outer loop
      vertex -14.25 -40 0
      vertex -14.25 -40 8
      vertex -14.25 -30 8
    endloop
  endfacet
  facet normal 0 -1 0
    outer loop
      vertex 23.75 -40 0
      vertex -14.25 -40 8
      vertex -14.25 -40 0
    endloop
  endfacet
  facet normal 0 -1 0
    outer loop
      vertex 23.75 -40 0
      vertex 23.75 -40 8
      vertex -14.25 -40 8
    endloop
  endfacet
  facet normal 1 0 0
    outer loop
      vertex 23.75 -30 0
      vertex 23.75 -40 8
      vertex 23.75 -40 0
    endloop
  endfacet
  facet normal 1 0 -0
    outer loop
      vertex 23.75 -30 0
      vertex 23.75 -30 8
      vertex 23.75 -40 8
    endloop
  endfacet
endsolid OpenSCAD_Model
