solid OpenSCAD_Model
  facet normal 1 -0 0
    outer loop
      vertex 160 0 10
      vertex 160 110 0
      vertex 160 110 10
    endloop
  endfacet
  facet normal 1 0 0
    outer loop
      vertex 160 110 0
      vertex 160 0 10
      vertex 160 0 0
    endloop
  endfacet
  facet normal 0 0 1
    outer loop
      vertex 12.5 14.3301 10
      vertex 147.5 14.3301 10
      vertex 12.5 95.6699 10
    endloop
  endfacet
  facet normal 0 0 1
    outer loop
      vertex 147.5 14.3301 10
      vertex 12.5 14.3301 10
      vertex 15 10 10
    endloop
  endfacet
  facet normal -0 0 1
    outer loop
      vertex 7.5 95.6699 10
      vertex 12.5 14.3301 10
      vertex 12.5 95.6699 10
    endloop
  endfacet
  facet normal 0 0 1
    outer loop
      vertex 7.5 95.6699 10
      vertex 7.5 14.3301 10
      vertex 12.5 14.3301 10
    endloop
  endfacet
  facet normal 0 0 1
    outer loop
      vertex 5 100 10
      vertex 7.5 14.3301 10
      vertex 7.5 95.6699 10
    endloop
  endfacet
  facet normal 0 0 1
    outer loop
      vertex 7.5 14.3301 10
      vertex 5 100 10
      vertex 5 10 10
    endloop
  endfacet
  facet normal -0 0 1
    outer loop
      vertex 152.5 95.6699 10
      vertex 155 10 10
      vertex 155 100 10
    endloop
  endfacet
  facet normal 0 0 1
    outer loop
      vertex 152.5 95.6699 10
      vertex 152.5 14.3301 10
      vertex 155 10 10
    endloop
  endfacet
  facet normal -0 0 1
    outer loop
      vertex 147.5 95.6699 10
      vertex 152.5 14.3301 10
      vertex 152.5 95.6699 10
    endloop
  endfacet
  facet normal 0 0 1
    outer loop
      vertex 147.5 95.6699 10
      vertex 147.5 14.3301 10
      vertex 152.5 14.3301 10
    endloop
  endfacet
  facet normal -0 0 1
    outer loop
      vertex 15 100 10
      vertex 147.5 95.6699 10
      vertex 145 100 10
    endloop
  endfacet
  facet normal 0 0 1
    outer loop
      vertex 12.5 95.6699 10
      vertex 147.5 95.6699 10
      vertex 15 100 10
    endloop
  endfacet
  facet normal 0 0 1
    outer loop
      vertex 160 110 10
      vertex 155 100 10
      vertex 160 0 10
    endloop
  endfacet
  facet normal 0 0 1
    outer loop
      vertex 160 110 10
      vertex 152.5 104.33 10
      vertex 155 100 10
    endloop
  endfacet
  facet normal 0 0 1
    outer loop
      vertex 160 110 10
      vertex 147.5 104.33 10
      vertex 152.5 104.33 10
    endloop
  endfacet
  facet normal 0 0 1
    outer loop
      vertex 147.5 95.6699 10
      vertex 12.5 95.6699 10
      vertex 147.5 14.3301 10
    endloop
  endfacet
  facet normal 0 0 1
    outer loop
      vertex 147.5 104.33 10
      vertex 15 100 10
      vertex 145 100 10
    endloop
  endfacet
  facet normal 0 0 1
    outer loop
      vertex 12.5 104.33 10
      vertex 147.5 104.33 10
      vertex 160 110 10
    endloop
  endfacet
  facet normal 0 0 1
    outer loop
      vertex 147.5 104.33 10
      vertex 12.5 104.33 10
      vertex 15 100 10
    endloop
  endfacet
  facet normal -0 0 1
    outer loop
      vertex 0 110 10
      vertex 12.5 104.33 10
      vertex 160 110 10
    endloop
  endfacet
  facet normal 0 0 1
    outer loop
      vertex 5 100 10
      vertex 0 110 10
      vertex 5 10 10
    endloop
  endfacet
  facet normal 0 0 1
    outer loop
      vertex 7.5 104.33 10
      vertex 0 110 10
      vertex 5 100 10
    endloop
  endfacet
  facet normal 0 0 1
    outer loop
      vertex 12.5 104.33 10
      vertex 0 110 10
      vertex 7.5 104.33 10
    endloop
  endfacet
  facet normal -0 0 1
    outer loop
      vertex 155 10 10
      vertex 160 0 10
      vertex 155 100 10
    endloop
  endfacet
  facet normal -0 0 1
    outer loop
      vertex 152.5 5.66987 10
      vertex 160 0 10
      vertex 155 10 10
    endloop
  endfacet
  facet normal -0 0 1
    outer loop
      vertex 147.5 5.66987 10
      vertex 160 0 10
      vertex 152.5 5.66987 10
    endloop
  endfacet
  facet normal 0 0 1
    outer loop
      vertex 147.5 14.3301 10
      vertex 15 10 10
      vertex 145 10 10
    endloop
  endfacet
  facet normal 0 0 1
    outer loop
      vertex 145 10 10
      vertex 15 10 10
      vertex 147.5 5.66987 10
    endloop
  endfacet
  facet normal 0 0 1
    outer loop
      vertex 12.5 5.66987 10
      vertex 147.5 5.66987 10
      vertex 15 10 10
    endloop
  endfacet
  facet normal 0 0 1
    outer loop
      vertex 147.5 5.66987 10
      vertex 12.5 5.66987 10
      vertex 160 0 10
    endloop
  endfacet
  facet normal 0 0 1
    outer loop
      vertex 0 0 10
      vertex 12.5 5.66987 10
      vertex 7.5 5.66987 10
    endloop
  endfacet
  facet normal 0 0 1
    outer loop
      vertex 12.5 5.66987 10
      vertex 0 0 10
      vertex 160 0 10
    endloop
  endfacet
  facet normal 0 0 1
    outer loop
      vertex 5 10 10
      vertex 0 0 10
      vertex 7.5 5.66987 10
    endloop
  endfacet
  facet normal 0 0 1
    outer loop
      vertex 0 0 10
      vertex 5 10 10
      vertex 0 110 10
    endloop
  endfacet
  facet normal 0 0 -1
    outer loop
      vertex 0 0 0
      vertex 160 110 0
      vertex 160 0 0
    endloop
  endfacet
  facet normal -0 0 -1
    outer loop
      vertex 160 110 0
      vertex 0 0 0
      vertex 0 110 0
    endloop
  endfacet
  facet normal -1 0 0
    outer loop
      vertex 0 0 0
      vertex 0 110 10
      vertex 0 110 0
    endloop
  endfacet
  facet normal -1 -0 0
    outer loop
      vertex 0 110 10
      vertex 0 0 0
      vertex 0 0 10
    endloop
  endfacet
  facet normal 0 1 -0
    outer loop
      vertex 160 110 0
      vertex 0 110 10
      vertex 160 110 10
    endloop
  endfacet
  facet normal 0 1 0
    outer loop
      vertex 0 110 10
      vertex 160 110 0
      vertex 0 110 0
    endloop
  endfacet
  facet normal 0 -1 0
    outer loop
      vertex 0 0 0
      vertex 160 0 10
      vertex 0 0 10
    endloop
  endfacet
  facet normal 0 -1 -0
    outer loop
      vertex 160 0 10
      vertex 0 0 0
      vertex 160 0 0
    endloop
  endfacet
  facet normal 0.866024 -0.500002 0
    outer loop
      vertex 5 10 10
      vertex 7.5 14.3301 3
      vertex 7.5 14.3301 10
    endloop
  endfacet
  facet normal 0.866024 -0.500002 0
    outer loop
      vertex 7.5 14.3301 3
      vertex 5 10 10
      vertex 5 10 3
    endloop
  endfacet
  facet normal 0 0 1
    outer loop
      vertex 12.5 14.3301 3
      vertex 12.5 5.66987 3
      vertex 15 10 3
    endloop
  endfacet
  facet normal -0 0 1
    outer loop
      vertex 7.5 14.3301 3
      vertex 12.5 5.66987 3
      vertex 12.5 14.3301 3
    endloop
  endfacet
  facet normal 0 0 1
    outer loop
      vertex 7.5 14.3301 3
      vertex 7.5 5.66987 3
      vertex 12.5 5.66987 3
    endloop
  endfacet
  facet normal 0 -0 1
    outer loop
      vertex 7.5 5.66987 3
      vertex 7.5 14.3301 3
      vertex 5 10 3
    endloop
  endfacet
  facet normal -0.866026 0.5 0
    outer loop
      vertex 12.5 5.66987 3
      vertex 15 10 10
      vertex 15 10 3
    endloop
  endfacet
  facet normal -0.866026 0.5 0
    outer loop
      vertex 15 10 10
      vertex 12.5 5.66987 3
      vertex 12.5 5.66987 10
    endloop
  endfacet
  facet normal 0.866026 0.5 0
    outer loop
      vertex 7.5 5.66987 10
      vertex 5 10 3
      vertex 5 10 10
    endloop
  endfacet
  facet normal 0.866026 0.5 0
    outer loop
      vertex 5 10 3
      vertex 7.5 5.66987 10
      vertex 7.5 5.66987 3
    endloop
  endfacet
  facet normal 0 1 -0
    outer loop
      vertex 12.5 5.66987 3
      vertex 7.5 5.66987 10
      vertex 12.5 5.66987 10
    endloop
  endfacet
  facet normal 0 1 0
    outer loop
      vertex 7.5 5.66987 10
      vertex 12.5 5.66987 3
      vertex 7.5 5.66987 3
    endloop
  endfacet
  facet normal 0 -1 0
    outer loop
      vertex 7.5 14.3301 3
      vertex 12.5 14.3301 10
      vertex 7.5 14.3301 10
    endloop
  endfacet
  facet normal 0 -1 -0
    outer loop
      vertex 12.5 14.3301 10
      vertex 7.5 14.3301 3
      vertex 12.5 14.3301 3
    endloop
  endfacet
  facet normal -0.866024 -0.500002 0
    outer loop
      vertex 15 10 3
      vertex 12.5 14.3301 10
      vertex 12.5 14.3301 3
    endloop
  endfacet
  facet normal -0.866024 -0.500002 0
    outer loop
      vertex 12.5 14.3301 10
      vertex 15 10 3
      vertex 15 10 10
    endloop
  endfacet
  facet normal 0.866024 -0.500002 0
    outer loop
      vertex 145 10 10
      vertex 147.5 14.3301 3
      vertex 147.5 14.3301 10
    endloop
  endfacet
  facet normal 0.866024 -0.500002 0
    outer loop
      vertex 147.5 14.3301 3
      vertex 145 10 10
      vertex 145 10 3
    endloop
  endfacet
  facet normal 0 0 1
    outer loop
      vertex 152.5 14.3301 3
      vertex 152.5 5.66987 3
      vertex 155 10 3
    endloop
  endfacet
  facet normal -0 0 1
    outer loop
      vertex 147.5 14.3301 3
      vertex 152.5 5.66987 3
      vertex 152.5 14.3301 3
    endloop
  endfacet
  facet normal 0 0 1
    outer loop
      vertex 147.5 14.3301 3
      vertex 147.5 5.66987 3
      vertex 152.5 5.66987 3
    endloop
  endfacet
  facet normal 0 -0 1
    outer loop
      vertex 147.5 5.66987 3
      vertex 147.5 14.3301 3
      vertex 145 10 3
    endloop
  endfacet
  facet normal -0.866026 0.5 0
    outer loop
      vertex 152.5 5.66987 3
      vertex 155 10 10
      vertex 155 10 3
    endloop
  endfacet
  facet normal -0.866026 0.5 0
    outer loop
      vertex 155 10 10
      vertex 152.5 5.66987 3
      vertex 152.5 5.66987 10
    endloop
  endfacet
  facet normal 0 -1 0
    outer loop
      vertex 147.5 14.3301 3
      vertex 152.5 14.3301 10
      vertex 147.5 14.3301 10
    endloop
  endfacet
  facet normal 0 -1 -0
    outer loop
      vertex 152.5 14.3301 10
      vertex 147.5 14.3301 3
      vertex 152.5 14.3301 3
    endloop
  endfacet
  facet normal 0.866026 0.5 0
    outer loop
      vertex 147.5 5.66987 10
      vertex 145 10 3
      vertex 145 10 10
    endloop
  endfacet
  facet normal 0.866026 0.5 0
    outer loop
      vertex 145 10 3
      vertex 147.5 5.66987 10
      vertex 147.5 5.66987 3
    endloop
  endfacet
  facet normal 0 1 -0
    outer loop
      vertex 152.5 5.66987 3
      vertex 147.5 5.66987 10
      vertex 152.5 5.66987 10
    endloop
  endfacet
  facet normal 0 1 0
    outer loop
      vertex 147.5 5.66987 10
      vertex 152.5 5.66987 3
      vertex 147.5 5.66987 3
    endloop
  endfacet
  facet normal -0.866024 -0.500002 0
    outer loop
      vertex 155 10 3
      vertex 152.5 14.3301 10
      vertex 152.5 14.3301 3
    endloop
  endfacet
  facet normal -0.866024 -0.500002 0
    outer loop
      vertex 152.5 14.3301 10
      vertex 155 10 3
      vertex 155 10 10
    endloop
  endfacet
  facet normal 0.866019 -0.500011 0
    outer loop
      vertex 5 100 10
      vertex 7.5 104.33 3
      vertex 7.5 104.33 10
    endloop
  endfacet
  facet normal 0.866019 -0.500011 0
    outer loop
      vertex 7.5 104.33 3
      vertex 5 100 10
      vertex 5 100 3
    endloop
  endfacet
  facet normal 0 0 1
    outer loop
      vertex 12.5 104.33 3
      vertex 12.5 95.6699 3
      vertex 15 100 3
    endloop
  endfacet
  facet normal -0 0 1
    outer loop
      vertex 7.5 104.33 3
      vertex 12.5 95.6699 3
      vertex 12.5 104.33 3
    endloop
  endfacet
  facet normal 0 0 1
    outer loop
      vertex 7.5 104.33 3
      vertex 7.5 95.6699 3
      vertex 12.5 95.6699 3
    endloop
  endfacet
  facet normal 0 -0 1
    outer loop
      vertex 7.5 95.6699 3
      vertex 7.5 104.33 3
      vertex 5 100 3
    endloop
  endfacet
  facet normal -0.866024 0.500002 0
    outer loop
      vertex 12.5 95.6699 3
      vertex 15 100 10
      vertex 15 100 3
    endloop
  endfacet
  facet normal -0.866024 0.500002 0
    outer loop
      vertex 15 100 10
      vertex 12.5 95.6699 3
      vertex 12.5 95.6699 10
    endloop
  endfacet
  facet normal 0 -1 0
    outer loop
      vertex 7.5 104.33 3
      vertex 12.5 104.33 10
      vertex 7.5 104.33 10
    endloop
  endfacet
  facet normal 0 -1 -0
    outer loop
      vertex 12.5 104.33 10
      vertex 7.5 104.33 3
      vertex 12.5 104.33 3
    endloop
  endfacet
  facet normal 0.866024 0.500002 0
    outer loop
      vertex 7.5 95.6699 10
      vertex 5 100 3
      vertex 5 100 10
    endloop
  endfacet
  facet normal 0.866024 0.500002 0
    outer loop
      vertex 5 100 3
      vertex 7.5 95.6699 10
      vertex 7.5 95.6699 3
    endloop
  endfacet
  facet normal 0 1 -0
    outer loop
      vertex 12.5 95.6699 3
      vertex 7.5 95.6699 10
      vertex 12.5 95.6699 10
    endloop
  endfacet
  facet normal 0 1 0
    outer loop
      vertex 7.5 95.6699 10
      vertex 12.5 95.6699 3
      vertex 7.5 95.6699 3
    endloop
  endfacet
  facet normal -0.866019 -0.500011 0
    outer loop
      vertex 15 100 3
      vertex 12.5 104.33 10
      vertex 12.5 104.33 3
    endloop
  endfacet
  facet normal -0.866019 -0.500011 0
    outer loop
      vertex 12.5 104.33 10
      vertex 15 100 3
      vertex 15 100 10
    endloop
  endfacet
  facet normal 0.866019 -0.500011 0
    outer loop
      vertex 145 100 10
      vertex 147.5 104.33 3
      vertex 147.5 104.33 10
    endloop
  endfacet
  facet normal 0.866019 -0.500011 0
    outer loop
      vertex 147.5 104.33 3
      vertex 145 100 10
      vertex 145 100 3
    endloop
  endfacet
  facet normal 0 0 1
    outer loop
      vertex 152.5 104.33 3
      vertex 152.5 95.6699 3
      vertex 155 100 3
    endloop
  endfacet
  facet normal -0 0 1
    outer loop
      vertex 147.5 104.33 3
      vertex 152.5 95.6699 3
      vertex 152.5 104.33 3
    endloop
  endfacet
  facet normal 0 0 1
    outer loop
      vertex 147.5 104.33 3
      vertex 147.5 95.6699 3
      vertex 152.5 95.6699 3
    endloop
  endfacet
  facet normal 0 -0 1
    outer loop
      vertex 147.5 95.6699 3
      vertex 147.5 104.33 3
      vertex 145 100 3
    endloop
  endfacet
  facet normal -0.866024 0.500002 0
    outer loop
      vertex 152.5 95.6699 3
      vertex 155 100 10
      vertex 155 100 3
    endloop
  endfacet
  facet normal -0.866024 0.500002 0
    outer loop
      vertex 155 100 10
      vertex 152.5 95.6699 3
      vertex 152.5 95.6699 10
    endloop
  endfacet
  facet normal 0.866024 0.500002 0
    outer loop
      vertex 147.5 95.6699 10
      vertex 145 100 3
      vertex 145 100 10
    endloop
  endfacet
  facet normal 0.866024 0.500002 0
    outer loop
      vertex 145 100 3
      vertex 147.5 95.6699 10
      vertex 147.5 95.6699 3
    endloop
  endfacet
  facet normal 0 1 -0
    outer loop
      vertex 152.5 95.6699 3
      vertex 147.5 95.6699 10
      vertex 152.5 95.6699 10
    endloop
  endfacet
  facet normal 0 1 0
    outer loop
      vertex 147.5 95.6699 10
      vertex 152.5 95.6699 3
      vertex 147.5 95.6699 3
    endloop
  endfacet
  facet normal 0 -1 0
    outer loop
      vertex 147.5 104.33 3
      vertex 152.5 104.33 10
      vertex 147.5 104.33 10
    endloop
  endfacet
  facet normal 0 -1 -0
    outer loop
      vertex 152.5 104.33 10
      vertex 147.5 104.33 3
      vertex 152.5 104.33 3
    endloop
  endfacet
  facet normal -0.866019 -0.500011 0
    outer loop
      vertex 155 100 3
      vertex 152.5 104.33 10
      vertex 152.5 104.33 3
    endloop
  endfacet
  facet normal -0.866019 -0.500011 0
    outer loop
      vertex 152.5 104.33 10
      vertex 155 100 3
      vertex 155 100 10
    endloop
  endfacet
endsolid OpenSCAD_Model
