solid OpenSCAD_Model
  facet normal 0 -0.876344 0.481686
    outer loop
      vertex 11.9007 103.379 10
      vertex 7.72545 103.855 10.866
      vertex 7.95091 103.379 10
    endloop
  endfacet
  facet normal 0 -0.876344 0.481686
    outer loop
      vertex 7.72545 103.855 10.866
      vertex 11.9007 103.379 10
      vertex 12.2004 103.855 10.866
    endloop
  endfacet
  facet normal 0 -0.876344 0.481686
    outer loop
      vertex 151.901 103.379 10
      vertex 147.725 103.855 10.866
      vertex 147.951 103.379 10
    endloop
  endfacet
  facet normal 0 -0.876344 0.481686
    outer loop
      vertex 147.725 103.855 10.866
      vertex 151.901 103.379 10
      vertex 152.2 103.855 10.866
    endloop
  endfacet
  facet normal -0 0.876771 0.480908
    outer loop
      vertex 0.309016 110.951 10
      vertex 160.155 110.476 10.866
      vertex 160.309 110.951 10
    endloop
  endfacet
  facet normal 0 0.876771 0.480908
    outer loop
      vertex 160.155 110.476 10.866
      vertex 0.309016 110.951 10
      vertex 0.154508 110.476 10.866
    endloop
  endfacet
  facet normal 0.733951 0.53196 0.422297
    outer loop
      vertex 160.309 110.951 10
      vertex 160.155 110.476 10.866
      vertex 160.5 110 10.866
    endloop
  endfacet
  facet normal 0.808994 0.587818 0
    outer loop
      vertex 161 110 10
      vertex 160.309 110.951 0
      vertex 160.309 110.951 10
    endloop
  endfacet
  facet normal 0.808994 0.587818 0
    outer loop
      vertex 160.309 110.951 0
      vertex 161 110 10
      vertex 161 110 0
    endloop
  endfacet
  facet normal -1 0 0
    outer loop
      vertex -0.809016 -0.587785 0
      vertex -0.809016 110.588 10
      vertex -0.809016 110.588 0
    endloop
  endfacet
  facet normal -1 -0 0
    outer loop
      vertex -0.809016 110.588 10
      vertex -0.809016 -0.587785 0
      vertex -0.809016 -0.587785 10
    endloop
  endfacet
  facet normal -0.308809 0.951124 0
    outer loop
      vertex 0.309016 110.951 0
      vertex -0.809016 110.588 10
      vertex 0.309016 110.951 10
    endloop
  endfacet
  facet normal -0.308809 0.951124 0
    outer loop
      vertex -0.809016 110.588 10
      vertex 0.309016 110.951 0
      vertex -0.809016 110.588 0
    endloop
  endfacet
  facet normal 0 0 1
    outer loop
      vertex 12.2004 13.8546 10.866
      vertex 147.725 13.8546 10.866
      vertex 12.2004 96.1454 10.866
    endloop
  endfacet
  facet normal 0 0 1
    outer loop
      vertex 147.725 13.8546 10.866
      vertex 12.2004 13.8546 10.866
      vertex 14.4258 10 10.866
    endloop
  endfacet
  facet normal -0 0 1
    outer loop
      vertex 7.72545 96.1454 10.866
      vertex 12.2004 13.8546 10.866
      vertex 12.2004 96.1454 10.866
    endloop
  endfacet
  facet normal 0 0 1
    outer loop
      vertex 7.72545 96.1454 10.866
      vertex 7.72545 13.8546 10.866
      vertex 12.2004 13.8546 10.866
    endloop
  endfacet
  facet normal 0 0 1
    outer loop
      vertex 5.5 100 10.866
      vertex 7.72545 13.8546 10.866
      vertex 7.72545 96.1454 10.866
    endloop
  endfacet
  facet normal 0 0 1
    outer loop
      vertex 7.72545 13.8546 10.866
      vertex 5.5 100 10.866
      vertex 5.5 10 10.866
    endloop
  endfacet
  facet normal -0 0 1
    outer loop
      vertex 152.2 96.1454 10.866
      vertex 154.426 10 10.866
      vertex 154.426 100 10.866
    endloop
  endfacet
  facet normal 0 0 1
    outer loop
      vertex 152.2 96.1454 10.866
      vertex 152.2 13.8546 10.866
      vertex 154.426 10 10.866
    endloop
  endfacet
  facet normal -0 0 1
    outer loop
      vertex 147.725 96.1454 10.866
      vertex 152.2 13.8546 10.866
      vertex 152.2 96.1454 10.866
    endloop
  endfacet
  facet normal 0 0 1
    outer loop
      vertex 147.725 96.1454 10.866
      vertex 147.725 13.8546 10.866
      vertex 152.2 13.8546 10.866
    endloop
  endfacet
  facet normal -0 0 1
    outer loop
      vertex 14.4258 100 10.866
      vertex 147.725 96.1454 10.866
      vertex 145.5 100 10.866
    endloop
  endfacet
  facet normal 0 0 1
    outer loop
      vertex 12.2004 96.1454 10.866
      vertex 147.725 96.1454 10.866
      vertex 14.4258 100 10.866
    endloop
  endfacet
  facet normal 0 0 1
    outer loop
      vertex 152.2 103.855 10.866
      vertex 160.5 110 10.866
      vertex 160.155 110.476 10.866
    endloop
  endfacet
  facet normal 0 0 1
    outer loop
      vertex 160.5 110 10.866
      vertex 154.426 100 10.866
      vertex 160.5 0 10.866
    endloop
  endfacet
  facet normal -0 0 1
    outer loop
      vertex 154.426 10 10.866
      vertex 160.5 0 10.866
      vertex 154.426 100 10.866
    endloop
  endfacet
  facet normal 0 0 1
    outer loop
      vertex 160.5 110 10.866
      vertex 152.2 103.855 10.866
      vertex 154.426 100 10.866
    endloop
  endfacet
  facet normal 0 0 1
    outer loop
      vertex 160.155 110.476 10.866
      vertex 147.725 103.855 10.866
      vertex 152.2 103.855 10.866
    endloop
  endfacet
  facet normal 0 0 1
    outer loop
      vertex 147.725 96.1454 10.866
      vertex 12.2004 96.1454 10.866
      vertex 147.725 13.8546 10.866
    endloop
  endfacet
  facet normal 0 0 1
    outer loop
      vertex 147.725 103.855 10.866
      vertex 14.4258 100 10.866
      vertex 145.5 100 10.866
    endloop
  endfacet
  facet normal -0 0 1
    outer loop
      vertex 0.154508 110.476 10.866
      vertex 147.725 103.855 10.866
      vertex 160.155 110.476 10.866
    endloop
  endfacet
  facet normal 0 0 1
    outer loop
      vertex 147.725 103.855 10.866
      vertex 12.2004 103.855 10.866
      vertex 14.4258 100 10.866
    endloop
  endfacet
  facet normal 0 0 1
    outer loop
      vertex 147.725 103.855 10.866
      vertex 0.154508 110.476 10.866
      vertex 12.2004 103.855 10.866
    endloop
  endfacet
  facet normal -0 0 1
    outer loop
      vertex -0.404508 110.294 10.866
      vertex 5.5 100 10.866
      vertex 0.154508 110.476 10.866
    endloop
  endfacet
  facet normal 0 0 1
    outer loop
      vertex 7.72545 103.855 10.866
      vertex 0.154508 110.476 10.866
      vertex 5.5 100 10.866
    endloop
  endfacet
  facet normal 0 0 1
    outer loop
      vertex 12.2004 103.855 10.866
      vertex 0.154508 110.476 10.866
      vertex 7.72545 103.855 10.866
    endloop
  endfacet
  facet normal -0 0 1
    outer loop
      vertex 152.2 6.1454 10.866
      vertex 160.5 0 10.866
      vertex 154.426 10 10.866
    endloop
  endfacet
  facet normal 0 0 1
    outer loop
      vertex 160.5 0 10.866
      vertex 152.2 6.1454 10.866
      vertex 160.155 -0.475528 10.866
    endloop
  endfacet
  facet normal -0 0 1
    outer loop
      vertex 147.725 6.1454 10.866
      vertex 160.155 -0.475528 10.866
      vertex 152.2 6.1454 10.866
    endloop
  endfacet
  facet normal 0 0 1
    outer loop
      vertex 147.725 13.8546 10.866
      vertex 14.4258 10 10.866
      vertex 145.5 10 10.866
    endloop
  endfacet
  facet normal 0 0 1
    outer loop
      vertex 145.5 10 10.866
      vertex 14.4258 10 10.866
      vertex 147.725 6.1454 10.866
    endloop
  endfacet
  facet normal 0 0 1
    outer loop
      vertex 12.2004 6.1454 10.866
      vertex 147.725 6.1454 10.866
      vertex 14.4258 10 10.866
    endloop
  endfacet
  facet normal 0 0 1
    outer loop
      vertex 0.154508 -0.475528 10.866
      vertex 147.725 6.1454 10.866
      vertex 12.2004 6.1454 10.866
    endloop
  endfacet
  facet normal 0 0 1
    outer loop
      vertex 0.154508 -0.475528 10.866
      vertex 12.2004 6.1454 10.866
      vertex 7.72545 6.1454 10.866
    endloop
  endfacet
  facet normal 0 0 1
    outer loop
      vertex 147.725 6.1454 10.866
      vertex 0.154508 -0.475528 10.866
      vertex 160.155 -0.475528 10.866
    endloop
  endfacet
  facet normal 0 0 1
    outer loop
      vertex 5.5 10 10.866
      vertex 0.154508 -0.475528 10.866
      vertex 7.72545 6.1454 10.866
    endloop
  endfacet
  facet normal 0 0 1
    outer loop
      vertex 5.5 100 10.866
      vertex -0.404508 110.294 10.866
      vertex 5.5 10 10.866
    endloop
  endfacet
  facet normal 0 0 1
    outer loop
      vertex -0.404508 -0.293892 10.866
      vertex 5.5 10 10.866
      vertex -0.404508 110.294 10.866
    endloop
  endfacet
  facet normal 0 0 1
    outer loop
      vertex 5.5 10 10.866
      vertex -0.404508 -0.293892 10.866
      vertex 0.154508 -0.475528 10.866
    endloop
  endfacet
  facet normal 0 -1 0
    outer loop
      vertex 7.95091 103.379 3.86602
      vertex 11.9007 103.379 10
      vertex 7.95091 103.379 10
    endloop
  endfacet
  facet normal 0 -1 -0
    outer loop
      vertex 11.9007 103.379 10
      vertex 7.95091 103.379 3.86602
      vertex 11.9007 103.379 3.86602
    endloop
  endfacet
  facet normal 0 -1 0
    outer loop
      vertex 147.951 103.379 3.86602
      vertex 151.901 103.379 10
      vertex 147.951 103.379 10
    endloop
  endfacet
  facet normal 0 -1 -0
    outer loop
      vertex 151.901 103.379 10
      vertex 147.951 103.379 3.86602
      vertex 151.901 103.379 3.86602
    endloop
  endfacet
  facet normal -0.280454 0.861418 0.423444
    outer loop
      vertex 0.154508 110.476 10.866
      vertex -0.809016 110.588 10
      vertex -0.404508 110.294 10.866
    endloop
  endfacet
  facet normal 0 1 -0
    outer loop
      vertex 160.309 110.951 0
      vertex 0.309016 110.951 10
      vertex 160.309 110.951 10
    endloop
  endfacet
  facet normal 0 1 0
    outer loop
      vertex 0.309016 110.951 10
      vertex 160.309 110.951 0
      vertex 0.309016 110.951 0
    endloop
  endfacet
  facet normal -0.906033 0 0.423207
    outer loop
      vertex -0.809016 110.588 10
      vertex -0.404508 -0.293892 10.866
      vertex -0.404508 110.294 10.866
    endloop
  endfacet
  facet normal -0.906033 0 0.423207
    outer loop
      vertex -0.404508 -0.293892 10.866
      vertex -0.809016 110.588 10
      vertex -0.809016 -0.587785 10
    endloop
  endfacet
  facet normal 0.732978 0.532585 0.423198
    outer loop
      vertex 161 110 10
      vertex 160.309 110.951 10
      vertex 160.5 110 10.866
    endloop
  endfacet
  facet normal -0.279845 0.861917 0.422832
    outer loop
      vertex 0.309016 110.951 10
      vertex -0.809016 110.588 10
      vertex 0.154508 110.476 10.866
    endloop
  endfacet
  facet normal 1 -0 0
    outer loop
      vertex 161 0 10
      vertex 161 110 0
      vertex 161 110 10
    endloop
  endfacet
  facet normal 1 0 0
    outer loop
      vertex 161 110 0
      vertex 161 0 10
      vertex 161 0 0
    endloop
  endfacet
  facet normal 0.866019 -0 0.500011
    outer loop
      vertex 160.5 0 10.866
      vertex 161 110 10
      vertex 160.5 110 10.866
    endloop
  endfacet
  facet normal 0.866019 0 0.500011
    outer loop
      vertex 161 110 10
      vertex 160.5 0 10.866
      vertex 161 0 10
    endloop
  endfacet
  facet normal -0.279981 -0.861693 -0.423198
    outer loop
      vertex 0.309016 -0.951056 0
      vertex -0.809016 -0.587785 0
      vertex 0.154508 -0.475528 -0.866025
    endloop
  endfacet
  facet normal 0 0.876545 0.48132
    outer loop
      vertex 11.9007 6.62093 10
      vertex 7.72545 6.1454 10.866
      vertex 12.2004 6.1454 10.866
    endloop
  endfacet
  facet normal 0 0.876545 0.48132
    outer loop
      vertex 7.72545 6.1454 10.866
      vertex 11.9007 6.62093 10
      vertex 7.95091 6.62093 10
    endloop
  endfacet
  facet normal 0 0.876545 0.48132
    outer loop
      vertex 151.901 6.62093 10
      vertex 147.725 6.1454 10.866
      vertex 152.2 6.1454 10.866
    endloop
  endfacet
  facet normal 0 0.876545 0.48132
    outer loop
      vertex 147.725 6.1454 10.866
      vertex 151.901 6.62093 10
      vertex 147.951 6.62093 10
    endloop
  endfacet
  facet normal -0.27998 -0.861688 0.423208
    outer loop
      vertex 0.154508 -0.475528 10.866
      vertex -0.809016 -0.587785 10
      vertex 0.309016 -0.951056 10
    endloop
  endfacet
  facet normal 0.80901 -0.587795 0
    outer loop
      vertex 160.309 -0.951056 10
      vertex 161 0 0
      vertex 161 0 10
    endloop
  endfacet
  facet normal 0.80901 -0.587795 0
    outer loop
      vertex 161 0 0
      vertex 160.309 -0.951056 10
      vertex 160.309 -0.951056 0
    endloop
  endfacet
  facet normal -0.309017 -0.951056 0
    outer loop
      vertex -0.809016 -0.587785 0
      vertex 0.309016 -0.951056 10
      vertex -0.809016 -0.587785 10
    endloop
  endfacet
  facet normal -0.309017 -0.951056 -0
    outer loop
      vertex 0.309016 -0.951056 10
      vertex -0.809016 -0.587785 0
      vertex 0.309016 -0.951056 0
    endloop
  endfacet
  facet normal 0.732994 -0.532565 -0.423195
    outer loop
      vertex 161 0 0
      vertex 160.309 -0.951056 0
      vertex 160.5 0 -0.866025
    endloop
  endfacet
  facet normal -0.279982 -0.861692 -0.423198
    outer loop
      vertex 0.154508 -0.475528 -0.866025
      vertex -0.809016 -0.587785 0
      vertex -0.404508 -0.293892 -0.866025
    endloop
  endfacet
  facet normal 0 -0.876546 0.481319
    outer loop
      vertex 0.309016 -0.951056 10
      vertex 160.155 -0.475528 10.866
      vertex 0.154508 -0.475528 10.866
    endloop
  endfacet
  facet normal 0 -0.876546 0.481319
    outer loop
      vertex 160.155 -0.475528 10.866
      vertex 0.309016 -0.951056 10
      vertex 160.309 -0.951056 10
    endloop
  endfacet
  facet normal 0 -1 0
    outer loop
      vertex 0.309016 -0.951056 0
      vertex 160.309 -0.951056 10
      vertex 0.309016 -0.951056 10
    endloop
  endfacet
  facet normal 0 -1 -0
    outer loop
      vertex 160.309 -0.951056 10
      vertex 0.309016 -0.951056 0
      vertex 160.309 -0.951056 0
    endloop
  endfacet
  facet normal 0 1 -0
    outer loop
      vertex 11.9007 6.62093 3.86602
      vertex 7.95091 6.62093 10
      vertex 11.9007 6.62093 10
    endloop
  endfacet
  facet normal 0 1 0
    outer loop
      vertex 7.95091 6.62093 10
      vertex 11.9007 6.62093 3.86602
      vertex 7.95091 6.62093 3.86602
    endloop
  endfacet
  facet normal 0 1 -0
    outer loop
      vertex 151.901 6.62093 3.86602
      vertex 147.951 6.62093 10
      vertex 151.901 6.62093 10
    endloop
  endfacet
  facet normal 0 1 0
    outer loop
      vertex 147.951 6.62093 10
      vertex 151.901 6.62093 3.86602
      vertex 147.951 6.62093 3.86602
    endloop
  endfacet
  facet normal -0 -0.876552 -0.481308
    outer loop
      vertex 160.155 -0.475528 -0.866025
      vertex 0.309016 -0.951056 0
      vertex 0.154508 -0.475528 -0.866025
    endloop
  endfacet
  facet normal 0 -0.876552 -0.481308
    outer loop
      vertex 0.309016 -0.951056 0
      vertex 160.155 -0.475528 -0.866025
      vertex 160.309 -0.951056 0
    endloop
  endfacet
  facet normal 0.732991 -0.532562 0.423205
    outer loop
      vertex 160.5 0 10.866
      vertex 160.309 -0.951056 10
      vertex 161 0 10
    endloop
  endfacet
  facet normal -0.906038 0 -0.423197
    outer loop
      vertex -0.404508 -0.293892 -0.866025
      vertex -0.809016 110.588 0
      vertex -0.404508 110.294 -0.866025
    endloop
  endfacet
  facet normal -0.906038 -0 -0.423197
    outer loop
      vertex -0.809016 110.588 0
      vertex -0.404508 -0.293892 -0.866025
      vertex -0.809016 -0.587785 0
    endloop
  endfacet
  facet normal -0.27998 -0.861688 0.423208
    outer loop
      vertex -0.404508 -0.293892 10.866
      vertex -0.809016 -0.587785 10
      vertex 0.154508 -0.475528 10.866
    endloop
  endfacet
  facet normal 0.733558 -0.532203 -0.422673
    outer loop
      vertex 160.309 -0.951056 0
      vertex 160.155 -0.475528 -0.866025
      vertex 160.5 0 -0.866025
    endloop
  endfacet
  facet normal 0.866025 0 -0.5
    outer loop
      vertex 161 0 0
      vertex 160.5 110 -0.866025
      vertex 161 110 0
    endloop
  endfacet
  facet normal 0.866025 0 -0.5
    outer loop
      vertex 160.5 110 -0.866025
      vertex 161 0 0
      vertex 160.5 0 -0.866025
    endloop
  endfacet
  facet normal 0 0 -1
    outer loop
      vertex 160.155 -0.475528 -0.866025
      vertex 160.5 110 -0.866025
      vertex 160.5 0 -0.866025
    endloop
  endfacet
  facet normal 0 0 -1
    outer loop
      vertex 160.155 -0.475528 -0.866025
      vertex 160.155 110.476 -0.866025
      vertex 160.5 110 -0.866025
    endloop
  endfacet
  facet normal 0 0 -1
    outer loop
      vertex 0.154508 -0.475528 -0.866025
      vertex 160.155 110.476 -0.866025
      vertex 160.155 -0.475528 -0.866025
    endloop
  endfacet
  facet normal 0 0 -1
    outer loop
      vertex 0.154508 -0.475528 -0.866025
      vertex 0.154508 110.476 -0.866025
      vertex 160.155 110.476 -0.866025
    endloop
  endfacet
  facet normal 0 0 -1
    outer loop
      vertex -0.404508 -0.293892 -0.866025
      vertex 0.154508 110.476 -0.866025
      vertex 0.154508 -0.475528 -0.866025
    endloop
  endfacet
  facet normal 0 0 -1
    outer loop
      vertex 0.154508 110.476 -0.866025
      vertex -0.404508 -0.293892 -0.866025
      vertex -0.404508 110.294 -0.866025
    endloop
  endfacet
  facet normal 0.733554 -0.5322 0.422683
    outer loop
      vertex 160.5 0 10.866
      vertex 160.155 -0.475528 10.866
      vertex 160.309 -0.951056 10
    endloop
  endfacet
  facet normal -0.280455 0.861422 -0.423434
    outer loop
      vertex -0.404508 110.294 -0.866025
      vertex -0.809016 110.588 0
      vertex 0.154508 110.476 -0.866025
    endloop
  endfacet
  facet normal -0.279847 0.861921 -0.422821
    outer loop
      vertex 0.154508 110.476 -0.866025
      vertex -0.809016 110.588 0
      vertex 0.309016 110.951 0
    endloop
  endfacet
  facet normal 0 0 1
    outer loop
      vertex 151.901 13.3791 3.86602
      vertex 151.901 6.62093 3.86602
      vertex 153.852 10 3.86602
    endloop
  endfacet
  facet normal -0 0 1
    outer loop
      vertex 147.951 13.3791 3.86602
      vertex 151.901 6.62093 3.86602
      vertex 151.901 13.3791 3.86602
    endloop
  endfacet
  facet normal 0 0 1
    outer loop
      vertex 147.951 13.3791 3.86602
      vertex 147.951 6.62093 3.86602
      vertex 151.901 6.62093 3.86602
    endloop
  endfacet
  facet normal 0 -0 1
    outer loop
      vertex 147.951 6.62093 3.86602
      vertex 147.951 13.3791 3.86602
      vertex 146 10 3.86602
    endloop
  endfacet
  facet normal 0 0 1
    outer loop
      vertex 11.9007 103.379 3.86602
      vertex 11.9007 96.6209 3.86602
      vertex 13.8516 100 3.86602
    endloop
  endfacet
  facet normal -0 0 1
    outer loop
      vertex 7.95091 103.379 3.86602
      vertex 11.9007 96.6209 3.86602
      vertex 11.9007 103.379 3.86602
    endloop
  endfacet
  facet normal 0 0 1
    outer loop
      vertex 7.95091 103.379 3.86602
      vertex 7.95091 96.6209 3.86602
      vertex 11.9007 96.6209 3.86602
    endloop
  endfacet
  facet normal 0 -0 1
    outer loop
      vertex 7.95091 96.6209 3.86602
      vertex 7.95091 103.379 3.86602
      vertex 6 100 3.86602
    endloop
  endfacet
  facet normal 0 0 1
    outer loop
      vertex 11.9007 13.3791 3.86602
      vertex 11.9007 6.62093 3.86602
      vertex 13.8516 10 3.86602
    endloop
  endfacet
  facet normal -0 0 1
    outer loop
      vertex 7.95091 13.3791 3.86602
      vertex 11.9007 6.62093 3.86602
      vertex 11.9007 13.3791 3.86602
    endloop
  endfacet
  facet normal 0 0 1
    outer loop
      vertex 7.95091 13.3791 3.86602
      vertex 7.95091 6.62093 3.86602
      vertex 11.9007 6.62093 3.86602
    endloop
  endfacet
  facet normal 0 -0 1
    outer loop
      vertex 7.95091 6.62093 3.86602
      vertex 7.95091 13.3791 3.86602
      vertex 6 10 3.86602
    endloop
  endfacet
  facet normal 0 0 1
    outer loop
      vertex 151.901 103.379 3.86602
      vertex 151.901 96.6209 3.86602
      vertex 153.852 100 3.86602
    endloop
  endfacet
  facet normal -0 0 1
    outer loop
      vertex 147.951 103.379 3.86602
      vertex 151.901 96.6209 3.86602
      vertex 151.901 103.379 3.86602
    endloop
  endfacet
  facet normal 0 0 1
    outer loop
      vertex 147.951 103.379 3.86602
      vertex 147.951 96.6209 3.86602
      vertex 151.901 96.6209 3.86602
    endloop
  endfacet
  facet normal 0 -0 1
    outer loop
      vertex 147.951 96.6209 3.86602
      vertex 147.951 103.379 3.86602
      vertex 146 100 3.86602
    endloop
  endfacet
  facet normal 0 0.876777 -0.480897
    outer loop
      vertex 160.155 110.476 -0.866025
      vertex 0.309016 110.951 0
      vertex 160.309 110.951 0
    endloop
  endfacet
  facet normal 0 0.876777 -0.480897
    outer loop
      vertex 0.309016 110.951 0
      vertex 160.155 110.476 -0.866025
      vertex 0.154508 110.476 -0.866025
    endloop
  endfacet
  facet normal 0.733954 0.531963 -0.422287
    outer loop
      vertex 160.5 110 -0.866025
      vertex 160.155 110.476 -0.866025
      vertex 160.309 110.951 0
    endloop
  endfacet
  facet normal 0.732982 0.532587 -0.423188
    outer loop
      vertex 160.5 110 -0.866025
      vertex 160.309 110.951 0
      vertex 161 110 0
    endloop
  endfacet
  facet normal 0.774596 -0.447212 0.447217
    outer loop
      vertex 5.5 10 10.866
      vertex 7.95091 13.3791 10
      vertex 7.72545 13.8546 10.866
    endloop
  endfacet
  facet normal 0.774593 -0.447208 0.447225
    outer loop
      vertex 7.95091 13.3791 10
      vertex 5.5 10 10.866
      vertex 6 10 10
    endloop
  endfacet
  facet normal 0.866027 -0.499997 0
    outer loop
      vertex 6 10 10
      vertex 7.95091 13.3791 3.86602
      vertex 7.95091 13.3791 10
    endloop
  endfacet
  facet normal 0.866027 -0.499997 0
    outer loop
      vertex 7.95091 13.3791 3.86602
      vertex 6 10 10
      vertex 6 10 3.86602
    endloop
  endfacet
  facet normal 0.774592 0.447212 0.447224
    outer loop
      vertex 5.5 10 10.866
      vertex 7.95091 6.62093 10
      vertex 6 10 10
    endloop
  endfacet
  facet normal 0.77459 0.447209 0.447229
    outer loop
      vertex 7.95091 6.62093 10
      vertex 5.5 10 10.866
      vertex 7.72545 6.1454 10.866
    endloop
  endfacet
  facet normal 0.866025 0.500001 0
    outer loop
      vertex 7.95091 6.62093 10
      vertex 6 10 3.86602
      vertex 6 10 10
    endloop
  endfacet
  facet normal 0.866025 0.500001 0
    outer loop
      vertex 6 10 3.86602
      vertex 7.95091 6.62093 10
      vertex 7.95091 6.62093 3.86602
    endloop
  endfacet
  facet normal 0.774477 -0.447053 0.447581
    outer loop
      vertex 145.5 10 10.866
      vertex 147.951 13.3791 10
      vertex 147.725 13.8546 10.866
    endloop
  endfacet
  facet normal 0.774586 -0.447225 0.447221
    outer loop
      vertex 147.951 13.3791 10
      vertex 145.5 10 10.866
      vertex 146 10 10
    endloop
  endfacet
  facet normal 0.866017 -0.500015 0
    outer loop
      vertex 146 10 10
      vertex 147.951 13.3791 3.86602
      vertex 147.951 13.3791 10
    endloop
  endfacet
  facet normal 0.866017 -0.500015 0
    outer loop
      vertex 147.951 13.3791 3.86602
      vertex 146 10 10
      vertex 146 10 3.86602
    endloop
  endfacet
  facet normal -0.751019 -0.433595 0.497962
    outer loop
      vertex 14.4258 10 10.866
      vertex 11.9007 13.3791 10
      vertex 13.8516 10 10
    endloop
  endfacet
  facet normal -0.751013 -0.433587 0.497978
    outer loop
      vertex 11.9007 13.3791 10
      vertex 14.4258 10 10.866
      vertex 12.2004 13.8546 10.866
    endloop
  endfacet
  facet normal -0.866028 -0.499995 0
    outer loop
      vertex 13.8516 10 3.86602
      vertex 11.9007 13.3791 10
      vertex 11.9007 13.3791 3.86602
    endloop
  endfacet
  facet normal -0.866028 -0.499995 0
    outer loop
      vertex 11.9007 13.3791 10
      vertex 13.8516 10 3.86602
      vertex 13.8516 10 10
    endloop
  endfacet
  facet normal 0 -1 0
    outer loop
      vertex 7.95091 13.3791 3.86602
      vertex 11.9007 13.3791 10
      vertex 7.95091 13.3791 10
    endloop
  endfacet
  facet normal 0 -1 -0
    outer loop
      vertex 11.9007 13.3791 10
      vertex 7.95091 13.3791 3.86602
      vertex 11.9007 13.3791 3.86602
    endloop
  endfacet
  facet normal 0 -1 0
    outer loop
      vertex 147.951 13.3791 3.86602
      vertex 151.901 13.3791 10
      vertex 147.951 13.3791 10
    endloop
  endfacet
  facet normal 0 -1 -0
    outer loop
      vertex 151.901 13.3791 10
      vertex 147.951 13.3791 3.86602
      vertex 151.901 13.3791 3.86602
    endloop
  endfacet
  facet normal 0 -0.876558 0.481297
    outer loop
      vertex 11.9007 13.3791 10
      vertex 7.72545 13.8546 10.866
      vertex 7.95091 13.3791 10
    endloop
  endfacet
  facet normal 0 -0.876558 0.481297
    outer loop
      vertex 7.72545 13.8546 10.866
      vertex 11.9007 13.3791 10
      vertex 12.2004 13.8546 10.866
    endloop
  endfacet
  facet normal 0 -0.876558 0.481297
    outer loop
      vertex 151.901 13.3791 10
      vertex 147.725 13.8546 10.866
      vertex 147.951 13.3791 10
    endloop
  endfacet
  facet normal 0 -0.876558 0.481297
    outer loop
      vertex 147.725 13.8546 10.866
      vertex 151.901 13.3791 10
      vertex 152.2 13.8546 10.866
    endloop
  endfacet
  facet normal 0 0.876558 0.481297
    outer loop
      vertex 11.9007 96.6209 10
      vertex 7.72545 96.1454 10.866
      vertex 12.2004 96.1454 10.866
    endloop
  endfacet
  facet normal 0 0.876558 0.481297
    outer loop
      vertex 7.72545 96.1454 10.866
      vertex 11.9007 96.6209 10
      vertex 7.95091 96.6209 10
    endloop
  endfacet
  facet normal 0 0.876558 0.481297
    outer loop
      vertex 151.901 96.6209 10
      vertex 147.725 96.1454 10.866
      vertex 152.2 96.1454 10.866
    endloop
  endfacet
  facet normal 0 0.876558 0.481297
    outer loop
      vertex 147.725 96.1454 10.866
      vertex 151.901 96.6209 10
      vertex 147.951 96.6209 10
    endloop
  endfacet
  facet normal 0 1 -0
    outer loop
      vertex 11.9007 96.6209 3.86602
      vertex 7.95091 96.6209 10
      vertex 11.9007 96.6209 10
    endloop
  endfacet
  facet normal 0 1 0
    outer loop
      vertex 7.95091 96.6209 10
      vertex 11.9007 96.6209 3.86602
      vertex 7.95091 96.6209 3.86602
    endloop
  endfacet
  facet normal 0 1 -0
    outer loop
      vertex 151.901 96.6209 3.86602
      vertex 147.951 96.6209 10
      vertex 151.901 96.6209 10
    endloop
  endfacet
  facet normal 0 1 0
    outer loop
      vertex 147.951 96.6209 10
      vertex 151.901 96.6209 3.86602
      vertex 147.951 96.6209 3.86602
    endloop
  endfacet
  facet normal -0.751017 0.433599 0.497961
    outer loop
      vertex 11.9007 6.62093 10
      vertex 14.4258 10 10.866
      vertex 13.8516 10 10
    endloop
  endfacet
  facet normal -0.751007 0.433584 0.497989
    outer loop
      vertex 14.4258 10 10.866
      vertex 11.9007 6.62093 10
      vertex 12.2004 6.1454 10.866
    endloop
  endfacet
  facet normal 0.774585 0.447228 0.44722
    outer loop
      vertex 145.5 10 10.866
      vertex 147.951 6.62093 10
      vertex 146 10 10
    endloop
  endfacet
  facet normal 0.774471 0.44705 0.447594
    outer loop
      vertex 147.951 6.62093 10
      vertex 145.5 10 10.866
      vertex 147.725 6.1454 10.866
    endloop
  endfacet
  facet normal 0.866015 0.500018 0
    outer loop
      vertex 147.951 6.62093 10
      vertex 146 10 3.86602
      vertex 146 10 10
    endloop
  endfacet
  facet normal 0.866015 0.500018 0
    outer loop
      vertex 146 10 3.86602
      vertex 147.951 6.62093 10
      vertex 147.951 6.62093 3.86602
    endloop
  endfacet
  facet normal -0.866026 0.499999 0
    outer loop
      vertex 11.9007 6.62093 3.86602
      vertex 13.8516 10 10
      vertex 13.8516 10 3.86602
    endloop
  endfacet
  facet normal -0.866026 0.499999 0
    outer loop
      vertex 13.8516 10 10
      vertex 11.9007 6.62093 3.86602
      vertex 11.9007 6.62093 10
    endloop
  endfacet
  facet normal -0.866017 -0.500015 0
    outer loop
      vertex 153.852 10 3.86602
      vertex 151.901 13.3791 10
      vertex 151.901 13.3791 3.86602
    endloop
  endfacet
  facet normal -0.866017 -0.500015 0
    outer loop
      vertex 151.901 13.3791 10
      vertex 153.852 10 3.86602
      vertex 153.852 10 10
    endloop
  endfacet
  facet normal -0.751076 -0.433651 0.497827
    outer loop
      vertex 154.426 10 10.866
      vertex 151.901 13.3791 10
      vertex 153.852 10 10
    endloop
  endfacet
  facet normal -0.751178 -0.433799 0.497545
    outer loop
      vertex 151.901 13.3791 10
      vertex 154.426 10 10.866
      vertex 152.2 13.8546 10.866
    endloop
  endfacet
  facet normal -0.751075 0.433654 0.497826
    outer loop
      vertex 151.901 6.62093 10
      vertex 154.426 10 10.866
      vertex 153.852 10 10
    endloop
  endfacet
  facet normal -0.751172 0.433796 0.497556
    outer loop
      vertex 154.426 10 10.866
      vertex 151.901 6.62093 10
      vertex 152.2 6.1454 10.866
    endloop
  endfacet
  facet normal -0.866015 0.500018 0
    outer loop
      vertex 151.901 6.62093 3.86602
      vertex 153.852 10 10
      vertex 153.852 10 3.86602
    endloop
  endfacet
  facet normal -0.866015 0.500018 0
    outer loop
      vertex 153.852 10 10
      vertex 151.901 6.62093 3.86602
      vertex 151.901 6.62093 10
    endloop
  endfacet
  facet normal 0.774531 -0.447128 0.447412
    outer loop
      vertex 5.5 100 10.866
      vertex 7.95091 103.379 10
      vertex 7.72545 103.855 10.866
    endloop
  endfacet
  facet normal 0.774589 -0.447219 0.447222
    outer loop
      vertex 7.95091 103.379 10
      vertex 5.5 100 10.866
      vertex 6 100 10
    endloop
  endfacet
  facet normal 0.866021 -0.500008 0
    outer loop
      vertex 6 100 10
      vertex 7.95091 103.379 3.86602
      vertex 7.95091 103.379 10
    endloop
  endfacet
  facet normal 0.866021 -0.500008 0
    outer loop
      vertex 7.95091 103.379 3.86602
      vertex 6 100 10
      vertex 6 100 3.86602
    endloop
  endfacet
  facet normal 0.774593 0.447208 0.447225
    outer loop
      vertex 5.5 100 10.866
      vertex 7.95091 96.6209 10
      vertex 6 100 10
    endloop
  endfacet
  facet normal 0.774596 0.447212 0.447217
    outer loop
      vertex 7.95091 96.6209 10
      vertex 5.5 100 10.866
      vertex 7.72545 96.1454 10.866
    endloop
  endfacet
  facet normal 0.866027 0.499997 0
    outer loop
      vertex 7.95091 96.6209 10
      vertex 6 100 3.86602
      vertex 6 100 10
    endloop
  endfacet
  facet normal 0.866027 0.499997 0
    outer loop
      vertex 6 100 3.86602
      vertex 7.95091 96.6209 10
      vertex 7.95091 96.6209 3.86602
    endloop
  endfacet
  facet normal 0.774412 -0.446969 0.447777
    outer loop
      vertex 145.5 100 10.866
      vertex 147.951 103.379 10
      vertex 147.725 103.855 10.866
    endloop
  endfacet
  facet normal 0.774582 -0.447235 0.447218
    outer loop
      vertex 147.951 103.379 10
      vertex 145.5 100 10.866
      vertex 146 100 10
    endloop
  endfacet
  facet normal -0.751014 -0.433606 0.497959
    outer loop
      vertex 14.4258 100 10.866
      vertex 11.9007 103.379 10
      vertex 13.8516 100 10
    endloop
  endfacet
  facet normal -0.750943 -0.433502 0.498157
    outer loop
      vertex 11.9007 103.379 10
      vertex 14.4258 100 10.866
      vertex 12.2004 103.855 10.866
    endloop
  endfacet
  facet normal -0.866022 -0.500006 0
    outer loop
      vertex 13.8516 100 3.86602
      vertex 11.9007 103.379 10
      vertex 11.9007 103.379 3.86602
    endloop
  endfacet
  facet normal -0.866022 -0.500006 0
    outer loop
      vertex 11.9007 103.379 10
      vertex 13.8516 100 3.86602
      vertex 13.8516 100 10
    endloop
  endfacet
  facet normal 0.866011 -0.500026 0
    outer loop
      vertex 146 100 10
      vertex 147.951 103.379 3.86602
      vertex 147.951 103.379 10
    endloop
  endfacet
  facet normal 0.866011 -0.500026 0
    outer loop
      vertex 147.951 103.379 3.86602
      vertex 146 100 10
      vertex 146 100 3.86602
    endloop
  endfacet
  facet normal 0.866017 0.500015 0
    outer loop
      vertex 147.951 96.6209 10
      vertex 146 100 3.86602
      vertex 146 100 10
    endloop
  endfacet
  facet normal 0.866017 0.500015 0
    outer loop
      vertex 146 100 3.86602
      vertex 147.951 96.6209 10
      vertex 147.951 96.6209 3.86602
    endloop
  endfacet
  facet normal -0.751019 0.433595 0.497962
    outer loop
      vertex 11.9007 96.6209 10
      vertex 14.4258 100 10.866
      vertex 13.8516 100 10
    endloop
  endfacet
  facet normal -0.751013 0.433587 0.497978
    outer loop
      vertex 14.4258 100 10.866
      vertex 11.9007 96.6209 10
      vertex 12.2004 96.1454 10.866
    endloop
  endfacet
  facet normal -0.866028 0.499995 0
    outer loop
      vertex 11.9007 96.6209 3.86602
      vertex 13.8516 100 10
      vertex 13.8516 100 3.86602
    endloop
  endfacet
  facet normal -0.866028 0.499995 0
    outer loop
      vertex 13.8516 100 10
      vertex 11.9007 96.6209 3.86602
      vertex 11.9007 96.6209 10
    endloop
  endfacet
  facet normal 0.774586 0.447225 0.447221
    outer loop
      vertex 145.5 100 10.866
      vertex 147.951 96.6209 10
      vertex 146 100 10
    endloop
  endfacet
  facet normal 0.774477 0.447053 0.447581
    outer loop
      vertex 147.951 96.6209 10
      vertex 145.5 100 10.866
      vertex 147.725 96.1454 10.866
    endloop
  endfacet
  facet normal -0.866011 -0.500026 0
    outer loop
      vertex 153.852 100 3.86602
      vertex 151.901 103.379 10
      vertex 151.901 103.379 3.86602
    endloop
  endfacet
  facet normal -0.866011 -0.500026 0
    outer loop
      vertex 151.901 103.379 10
      vertex 153.852 100 3.86602
      vertex 153.852 100 10
    endloop
  endfacet
  facet normal -0.751072 -0.433661 0.497824
    outer loop
      vertex 154.426 100 10.866
      vertex 151.901 103.379 10
      vertex 153.852 100 10
    endloop
  endfacet
  facet normal -0.751108 -0.433714 0.497724
    outer loop
      vertex 151.901 103.379 10
      vertex 154.426 100 10.866
      vertex 152.2 103.855 10.866
    endloop
  endfacet
  facet normal -0.751076 0.433651 0.497827
    outer loop
      vertex 151.901 96.6209 10
      vertex 154.426 100 10.866
      vertex 153.852 100 10
    endloop
  endfacet
  facet normal -0.751178 0.433799 0.497545
    outer loop
      vertex 154.426 100 10.866
      vertex 151.901 96.6209 10
      vertex 152.2 96.1454 10.866
    endloop
  endfacet
  facet normal -0.866017 0.500015 0
    outer loop
      vertex 151.901 96.6209 3.86602
      vertex 153.852 100 10
      vertex 153.852 100 3.86602
    endloop
  endfacet
  facet normal -0.866017 0.500015 0
    outer loop
      vertex 153.852 100 10
      vertex 151.901 96.6209 3.86602
      vertex 151.901 96.6209 10
    endloop
  endfacet
endsolid OpenSCAD_Model
