solid OpenSCAD_Model
  facet normal 0 0 -1
    outer loop
      vertex 27 -7.5 0
      vertex -7 -7.5 0
      vertex 3.3399 -6.04616 0
    endloop
  endfacet
  facet normal 0 0 -1
    outer loop
      vertex -4.88991 -1.85342 0
      vertex -7 7.5 0
      vertex -2.02254 1.46945 0
    endloop
  endfacet
  facet normal -0 0 -1
    outer loop
      vertex 3.3399 -6.04616 0
      vertex -7 -7.5 0
      vertex 2.66008 -6.04616 0
    endloop
  endfacet
  facet normal -0 0 -1
    outer loop
      vertex 2.66008 -6.04616 0
      vertex -7 -7.5 0
      vertex -4.3399 -3.54616 0
    endloop
  endfacet
  facet normal -0 0 -1
    outer loop
      vertex -4.3399 -3.54616 0
      vertex -7 -7.5 0
      vertex -4.88991 -3.14656 0
    endloop
  endfacet
  facet normal -0 0 -1
    outer loop
      vertex -4.88991 -3.14656 0
      vertex -7 -7.5 0
      vertex -5.09999 -2.5 0
    endloop
  endfacet
  facet normal -0 0 -1
    outer loop
      vertex -5.09999 -2.5 0
      vertex -7 -7.5 0
      vertex -7 7.5 0
    endloop
  endfacet
  facet normal -0 0 -1
    outer loop
      vertex -4.88991 -1.85342 0
      vertex -5.09999 -2.5 0
      vertex -7 7.5 0
    endloop
  endfacet
  facet normal 0 0 -1
    outer loop
      vertex -2.02254 1.46945 0
      vertex -7 7.5 0
      vertex -1.46945 2.02254 0
    endloop
  endfacet
  facet normal 0 0 -1
    outer loop
      vertex -1.46945 2.02254 0
      vertex -7 7.5 0
      vertex -0.772537 2.37764 0
    endloop
  endfacet
  facet normal 0 0 -1
    outer loop
      vertex -0.772537 2.37764 0
      vertex -7 7.5 0
      vertex 0 2.5 0
    endloop
  endfacet
  facet normal 0 0 -1
    outer loop
      vertex 0 2.5 0
      vertex -7 7.5 0
      vertex 0.772537 2.37764 0
    endloop
  endfacet
  facet normal 0 0 -1
    outer loop
      vertex 0.772537 2.37764 0
      vertex -7 7.5 0
      vertex 19.2275 2.37764 0
    endloop
  endfacet
  facet normal 0 0 -1
    outer loop
      vertex 1.46945 2.02254 0
      vertex 18.5305 2.02254 0
      vertex 17.9775 1.46945 0
    endloop
  endfacet
  facet normal 0 0 -1
    outer loop
      vertex 3.88991 -5.64656 0
      vertex 15.1101 -3.14656 0
      vertex 15.6601 -3.54616 0
    endloop
  endfacet
  facet normal 0 0 -1
    outer loop
      vertex 19.2275 -2.37764 0
      vertex 20 -2.5 0
      vertex 21.9 -5 0
    endloop
  endfacet
  facet normal 0 0 -1
    outer loop
      vertex 0.772537 2.37764 0
      vertex 19.2275 2.37764 0
      vertex 18.5305 2.02254 0
    endloop
  endfacet
  facet normal 0 -0 -1
    outer loop
      vertex 15.6601 -3.54616 0
      vertex 22.6601 -6.04616 0
      vertex 3.3399 -6.04616 0
    endloop
  endfacet
  facet normal 0 0 -1
    outer loop
      vertex 21.9 -5 0
      vertex 16.3399 -3.54616 0
      vertex 16.8899 -3.14656 0
    endloop
  endfacet
  facet normal 0 -0 -1
    outer loop
      vertex 27 7.5 0
      vertex 27 -7.5 0
      vertex 23.8899 -4.35342 0
    endloop
  endfacet
  facet normal 0 0 -1
    outer loop
      vertex 20 2.5 0
      vertex 27 7.5 0
      vertex 20.7725 2.37764 0
    endloop
  endfacet
  facet normal 0 0 -1
    outer loop
      vertex 3.3399 -6.04616 0
      vertex 3.88991 -5.64656 0
      vertex 15.6601 -3.54616 0
    endloop
  endfacet
  facet normal 0 0 -1
    outer loop
      vertex 16.8899 -1.85342 0
      vertex 17.9775 -1.46945 0
      vertex 17.1 -2.5 0
    endloop
  endfacet
  facet normal 0 0 -1
    outer loop
      vertex 17.6224 0.772537 0
      vertex 17.5 0 0
      vertex 15.6601 -1.45383 0
    endloop
  endfacet
  facet normal 0 0 -1
    outer loop
      vertex 17.9775 1.46945 0
      vertex 17.6224 0.772537 0
      vertex 15.6601 -1.45383 0
    endloop
  endfacet
  facet normal 0 0 -1
    outer loop
      vertex 4.09999 -5 0
      vertex 14.9 -2.5 0
      vertex 15.1101 -3.14656 0
    endloop
  endfacet
  facet normal 0 0 -1
    outer loop
      vertex 15.1101 -1.85342 0
      vertex 2.37764 0.772537 0
      vertex 2.02254 1.46945 0
    endloop
  endfacet
  facet normal -0 0 -1
    outer loop
      vertex 17.9775 1.46945 0
      vertex 15.1101 -1.85342 0
      vertex 2.02254 1.46945 0
    endloop
  endfacet
  facet normal 0 0 -1
    outer loop
      vertex 1.46945 2.02254 0
      vertex 17.9775 1.46945 0
      vertex 2.02254 1.46945 0
    endloop
  endfacet
  facet normal 0 0 -1
    outer loop
      vertex 0.772537 2.37764 0
      vertex 18.5305 2.02254 0
      vertex 1.46945 2.02254 0
    endloop
  endfacet
  facet normal -0 0 -1
    outer loop
      vertex 27 7.5 0
      vertex 19.2275 2.37764 0
      vertex -7 7.5 0
    endloop
  endfacet
  facet normal 0 0 -1
    outer loop
      vertex 27 7.5 0
      vertex 20 2.5 0
      vertex 19.2275 2.37764 0
    endloop
  endfacet
  facet normal 0 0 -1
    outer loop
      vertex 20.7725 2.37764 0
      vertex 27 7.5 0
      vertex 21.4695 2.02254 0
    endloop
  endfacet
  facet normal 0 0 -1
    outer loop
      vertex 21.4695 2.02254 0
      vertex 27 7.5 0
      vertex 22.0225 1.46945 0
    endloop
  endfacet
  facet normal 0 0 -1
    outer loop
      vertex 22.0225 1.46945 0
      vertex 27 7.5 0
      vertex 22.3776 0.772537 0
    endloop
  endfacet
  facet normal 0 0 -1
    outer loop
      vertex 22.5 0 0
      vertex 22.3776 0.772537 0
      vertex 27 7.5 0
    endloop
  endfacet
  facet normal 0 0 -1
    outer loop
      vertex 23.8899 -4.35342 0
      vertex 22.5 0 0
      vertex 27 7.5 0
    endloop
  endfacet
  facet normal 0 0 -1
    outer loop
      vertex 23.3399 -3.95383 0
      vertex 22.3776 -0.772537 0
      vertex 23.8899 -4.35342 0
    endloop
  endfacet
  facet normal 0 0 -1
    outer loop
      vertex 21.4695 -2.02254 0
      vertex 22.0225 -1.46945 0
      vertex 22.6601 -3.95383 0
    endloop
  endfacet
  facet normal 0 0 -1
    outer loop
      vertex 20.7725 -2.37764 0
      vertex 21.4695 -2.02254 0
      vertex 22.1101 -4.35342 0
    endloop
  endfacet
  facet normal 0 0 -1
    outer loop
      vertex 20 -2.5 0
      vertex 22.1101 -4.35342 0
      vertex 21.9 -5 0
    endloop
  endfacet
  facet normal 0 0 -1
    outer loop
      vertex 16.8899 -3.14656 0
      vertex 17.1 -2.5 0
      vertex 18.5305 -2.02254 0
    endloop
  endfacet
  facet normal 0 0 -1
    outer loop
      vertex 27 -7.5 0
      vertex 3.3399 -6.04616 0
      vertex 22.6601 -6.04616 0
    endloop
  endfacet
  facet normal 0 0 -1
    outer loop
      vertex 3.88991 -5.64656 0
      vertex 4.09999 -5 0
      vertex 15.1101 -3.14656 0
    endloop
  endfacet
  facet normal 0 0 -1
    outer loop
      vertex 4.09999 -5 0
      vertex 2.37764 0.772537 0
      vertex 14.9 -2.5 0
    endloop
  endfacet
  facet normal 0 0 -1
    outer loop
      vertex 14.9 -2.5 0
      vertex 2.37764 0.772537 0
      vertex 15.1101 -1.85342 0
    endloop
  endfacet
  facet normal 0 0 -1
    outer loop
      vertex 15.1101 -1.85342 0
      vertex 17.9775 1.46945 0
      vertex 15.6601 -1.45383 0
    endloop
  endfacet
  facet normal 0 0 -1
    outer loop
      vertex 15.6601 -1.45383 0
      vertex 17.5 0 0
      vertex 16.3399 -1.45383 0
    endloop
  endfacet
  facet normal 0 0 -1
    outer loop
      vertex 16.8899 -1.85342 0
      vertex 16.3399 -1.45383 0
      vertex 17.6224 -0.772537 0
    endloop
  endfacet
  facet normal 0 0 -1
    outer loop
      vertex 16.3399 -1.45383 0
      vertex 17.5 0 0
      vertex 17.6224 -0.772537 0
    endloop
  endfacet
  facet normal 0 0 -1
    outer loop
      vertex 16.8899 -1.85342 0
      vertex 17.6224 -0.772537 0
      vertex 17.9775 -1.46945 0
    endloop
  endfacet
  facet normal 0 0 -1
    outer loop
      vertex 17.1 -2.5 0
      vertex 17.9775 -1.46945 0
      vertex 18.5305 -2.02254 0
    endloop
  endfacet
  facet normal -0 -0 -1
    outer loop
      vertex 16.3399 -3.54616 0
      vertex 22.1101 -5.64656 0
      vertex 15.6601 -3.54616 0
    endloop
  endfacet
  facet normal 0 0 -1
    outer loop
      vertex 16.8899 -3.14656 0
      vertex 18.5305 -2.02254 0
      vertex 19.2275 -2.37764 0
    endloop
  endfacet
  facet normal 0 0 -1
    outer loop
      vertex 22.6601 -6.04616 0
      vertex 15.6601 -3.54616 0
      vertex 22.1101 -5.64656 0
    endloop
  endfacet
  facet normal 0 0 -1
    outer loop
      vertex 27 -7.5 0
      vertex 22.6601 -6.04616 0
      vertex 23.3399 -6.04616 0
    endloop
  endfacet
  facet normal 0 0 -1
    outer loop
      vertex 21.4695 -2.02254 0
      vertex 22.6601 -3.95383 0
      vertex 22.1101 -4.35342 0
    endloop
  endfacet
  facet normal 0 0 -1
    outer loop
      vertex 21.9 -5 0
      vertex 16.8899 -3.14656 0
      vertex 19.2275 -2.37764 0
    endloop
  endfacet
  facet normal 0 0 -1
    outer loop
      vertex 22.1101 -5.64656 0
      vertex 16.3399 -3.54616 0
      vertex 21.9 -5 0
    endloop
  endfacet
  facet normal 0 0 -1
    outer loop
      vertex 20 -2.5 0
      vertex 20.7725 -2.37764 0
      vertex 22.1101 -4.35342 0
    endloop
  endfacet
  facet normal 0 0 -1
    outer loop
      vertex 22.0225 -1.46945 0
      vertex 23.3399 -3.95383 0
      vertex 22.6601 -3.95383 0
    endloop
  endfacet
  facet normal 0 0 -1
    outer loop
      vertex 23.8899 -4.35342 0
      vertex 27 -7.5 0
      vertex 24.1 -5 0
    endloop
  endfacet
  facet normal 0 -0 -1
    outer loop
      vertex 22.3776 -0.772537 0
      vertex 23.3399 -3.95383 0
      vertex 22.0225 -1.46945 0
    endloop
  endfacet
  facet normal 0 -0 -1
    outer loop
      vertex 22.5 0 0
      vertex 23.8899 -4.35342 0
      vertex 22.3776 -0.772537 0
    endloop
  endfacet
  facet normal 0 -0 -1
    outer loop
      vertex 24.1 -5 0
      vertex 27 -7.5 0
      vertex 23.8899 -5.64656 0
    endloop
  endfacet
  facet normal 0 -0 -1
    outer loop
      vertex 23.8899 -5.64656 0
      vertex 27 -7.5 0
      vertex 23.3399 -6.04616 0
    endloop
  endfacet
  facet normal 0 0 1
    outer loop
      vertex 3.3399 -6.04616 1.5
      vertex -7 -7.5 1.5
      vertex 27 -7.5 1.5
    endloop
  endfacet
  facet normal 0 0 1
    outer loop
      vertex -2.02254 1.46945 1.5
      vertex -7 7.5 1.5
      vertex -4.88991 -1.85342 1.5
    endloop
  endfacet
  facet normal -0 0 1
    outer loop
      vertex 2.66008 -6.04616 1.5
      vertex -7 -7.5 1.5
      vertex 3.3399 -6.04616 1.5
    endloop
  endfacet
  facet normal 0 0 1
    outer loop
      vertex -4.3399 -3.54616 1.5
      vertex -7 -7.5 1.5
      vertex 2.66008 -6.04616 1.5
    endloop
  endfacet
  facet normal 0 0 1
    outer loop
      vertex -4.88991 -3.14656 1.5
      vertex -7 -7.5 1.5
      vertex -4.3399 -3.54616 1.5
    endloop
  endfacet
  facet normal 0 0 1
    outer loop
      vertex -5.09999 -2.5 1.5
      vertex -7 -7.5 1.5
      vertex -4.88991 -3.14656 1.5
    endloop
  endfacet
  facet normal 0 0 1
    outer loop
      vertex -7 7.5 1.5
      vertex -7 -7.5 1.5
      vertex -5.09999 -2.5 1.5
    endloop
  endfacet
  facet normal 0 0 1
    outer loop
      vertex -7 7.5 1.5
      vertex -5.09999 -2.5 1.5
      vertex -4.88991 -1.85342 1.5
    endloop
  endfacet
  facet normal 0 0 1
    outer loop
      vertex -1.46945 2.02254 1.5
      vertex -7 7.5 1.5
      vertex -2.02254 1.46945 1.5
    endloop
  endfacet
  facet normal 0 0 1
    outer loop
      vertex -0.772537 2.37764 1.5
      vertex -7 7.5 1.5
      vertex -1.46945 2.02254 1.5
    endloop
  endfacet
  facet normal 0 0 1
    outer loop
      vertex 0 2.5 1.5
      vertex -7 7.5 1.5
      vertex -0.772537 2.37764 1.5
    endloop
  endfacet
  facet normal 0 0 1
    outer loop
      vertex 0.772537 2.37764 1.5
      vertex -7 7.5 1.5
      vertex 0 2.5 1.5
    endloop
  endfacet
  facet normal 0 0 1
    outer loop
      vertex 19.2275 2.37764 1.5
      vertex -7 7.5 1.5
      vertex 0.772537 2.37764 1.5
    endloop
  endfacet
  facet normal 0 -0 1
    outer loop
      vertex 17.9775 1.46945 1.5
      vertex 18.5305 2.02254 1.5
      vertex 1.46945 2.02254 1.5
    endloop
  endfacet
  facet normal 0 0 1
    outer loop
      vertex 15.6601 -3.54616 1.5
      vertex 15.1101 -3.14656 1.5
      vertex 3.88991 -5.64656 1.5
    endloop
  endfacet
  facet normal 0 0 1
    outer loop
      vertex 21.9 -5 1.5
      vertex 20 -2.5 1.5
      vertex 19.2275 -2.37764 1.5
    endloop
  endfacet
  facet normal 0 -0 1
    outer loop
      vertex 18.5305 2.02254 1.5
      vertex 19.2275 2.37764 1.5
      vertex 0.772537 2.37764 1.5
    endloop
  endfacet
  facet normal 0 0 1
    outer loop
      vertex 3.3399 -6.04616 1.5
      vertex 22.6601 -6.04616 1.5
      vertex 15.6601 -3.54616 1.5
    endloop
  endfacet
  facet normal 0 0 1
    outer loop
      vertex 16.8899 -3.14656 1.5
      vertex 16.3399 -3.54616 1.5
      vertex 21.9 -5 1.5
    endloop
  endfacet
  facet normal -0 0 1
    outer loop
      vertex 23.8899 -4.35342 1.5
      vertex 27 -7.5 1.5
      vertex 27 7.5 1.5
    endloop
  endfacet
  facet normal 0 -0 1
    outer loop
      vertex 20.7725 2.37764 1.5
      vertex 27 7.5 1.5
      vertex 20 2.5 1.5
    endloop
  endfacet
  facet normal 0 0 1
    outer loop
      vertex 15.6601 -3.54616 1.5
      vertex 3.88991 -5.64656 1.5
      vertex 3.3399 -6.04616 1.5
    endloop
  endfacet
  facet normal 0 -0 1
    outer loop
      vertex 17.1 -2.5 1.5
      vertex 17.9775 -1.46945 1.5
      vertex 16.8899 -1.85342 1.5
    endloop
  endfacet
  facet normal 0 0 1
    outer loop
      vertex 15.6601 -1.45383 1.5
      vertex 17.5 0 1.5
      vertex 17.6224 0.772537 1.5
    endloop
  endfacet
  facet normal 0 0 1
    outer loop
      vertex 15.6601 -1.45383 1.5
      vertex 17.6224 0.772537 1.5
      vertex 17.9775 1.46945 1.5
    endloop
  endfacet
  facet normal 0 0 1
    outer loop
      vertex 15.1101 -3.14656 1.5
      vertex 14.9 -2.5 1.5
      vertex 4.09999 -5 1.5
    endloop
  endfacet
  facet normal 0 0 1
    outer loop
      vertex 2.02254 1.46945 1.5
      vertex 2.37764 0.772537 1.5
      vertex 15.1101 -1.85342 1.5
    endloop
  endfacet
  facet normal -0 0 1
    outer loop
      vertex 2.02254 1.46945 1.5
      vertex 15.1101 -1.85342 1.5
      vertex 17.9775 1.46945 1.5
    endloop
  endfacet
  facet normal 0 -0 1
    outer loop
      vertex 2.02254 1.46945 1.5
      vertex 17.9775 1.46945 1.5
      vertex 1.46945 2.02254 1.5
    endloop
  endfacet
  facet normal 0 -0 1
    outer loop
      vertex 1.46945 2.02254 1.5
      vertex 18.5305 2.02254 1.5
      vertex 0.772537 2.37764 1.5
    endloop
  endfacet
  facet normal -0 0 1
    outer loop
      vertex -7 7.5 1.5
      vertex 19.2275 2.37764 1.5
      vertex 27 7.5 1.5
    endloop
  endfacet
  facet normal 0 0 1
    outer loop
      vertex 19.2275 2.37764 1.5
      vertex 20 2.5 1.5
      vertex 27 7.5 1.5
    endloop
  endfacet
  facet normal 0 -0 1
    outer loop
      vertex 21.4695 2.02254 1.5
      vertex 27 7.5 1.5
      vertex 20.7725 2.37764 1.5
    endloop
  endfacet
  facet normal 0 -0 1
    outer loop
      vertex 22.0225 1.46945 1.5
      vertex 27 7.5 1.5
      vertex 21.4695 2.02254 1.5
    endloop
  endfacet
  facet normal 0 -0 1
    outer loop
      vertex 22.3776 0.772537 1.5
      vertex 27 7.5 1.5
      vertex 22.0225 1.46945 1.5
    endloop
  endfacet
  facet normal 0 0 1
    outer loop
      vertex 27 7.5 1.5
      vertex 22.3776 0.772537 1.5
      vertex 22.5 0 1.5
    endloop
  endfacet
  facet normal 0 0 1
    outer loop
      vertex 27 7.5 1.5
      vertex 22.5 0 1.5
      vertex 23.8899 -4.35342 1.5
    endloop
  endfacet
  facet normal 0 0 1
    outer loop
      vertex 23.8899 -4.35342 1.5
      vertex 22.3776 -0.772537 1.5
      vertex 23.3399 -3.95383 1.5
    endloop
  endfacet
  facet normal 0 0 1
    outer loop
      vertex 22.6601 -3.95383 1.5
      vertex 22.0225 -1.46945 1.5
      vertex 21.4695 -2.02254 1.5
    endloop
  endfacet
  facet normal 0 0 1
    outer loop
      vertex 22.1101 -4.35342 1.5
      vertex 21.4695 -2.02254 1.5
      vertex 20.7725 -2.37764 1.5
    endloop
  endfacet
  facet normal 0 -0 1
    outer loop
      vertex 21.9 -5 1.5
      vertex 22.1101 -4.35342 1.5
      vertex 20 -2.5 1.5
    endloop
  endfacet
  facet normal 0 0 1
    outer loop
      vertex 18.5305 -2.02254 1.5
      vertex 17.1 -2.5 1.5
      vertex 16.8899 -3.14656 1.5
    endloop
  endfacet
  facet normal 0 0 1
    outer loop
      vertex 22.6601 -6.04616 1.5
      vertex 3.3399 -6.04616 1.5
      vertex 27 -7.5 1.5
    endloop
  endfacet
  facet normal 0 0 1
    outer loop
      vertex 15.1101 -3.14656 1.5
      vertex 4.09999 -5 1.5
      vertex 3.88991 -5.64656 1.5
    endloop
  endfacet
  facet normal 0 0 1
    outer loop
      vertex 14.9 -2.5 1.5
      vertex 2.37764 0.772537 1.5
      vertex 4.09999 -5 1.5
    endloop
  endfacet
  facet normal 0 0 1
    outer loop
      vertex 15.1101 -1.85342 1.5
      vertex 2.37764 0.772537 1.5
      vertex 14.9 -2.5 1.5
    endloop
  endfacet
  facet normal 0 -0 1
    outer loop
      vertex 15.6601 -1.45383 1.5
      vertex 17.9775 1.46945 1.5
      vertex 15.1101 -1.85342 1.5
    endloop
  endfacet
  facet normal 0 -0 1
    outer loop
      vertex 16.3399 -1.45383 1.5
      vertex 17.5 0 1.5
      vertex 15.6601 -1.45383 1.5
    endloop
  endfacet
  facet normal 0 0 1
    outer loop
      vertex 17.6224 -0.772537 1.5
      vertex 16.3399 -1.45383 1.5
      vertex 16.8899 -1.85342 1.5
    endloop
  endfacet
  facet normal 0 0 1
    outer loop
      vertex 17.6224 -0.772537 1.5
      vertex 17.5 0 1.5
      vertex 16.3399 -1.45383 1.5
    endloop
  endfacet
  facet normal 0 0 1
    outer loop
      vertex 17.9775 -1.46945 1.5
      vertex 17.6224 -0.772537 1.5
      vertex 16.8899 -1.85342 1.5
    endloop
  endfacet
  facet normal 0 0 1
    outer loop
      vertex 18.5305 -2.02254 1.5
      vertex 17.9775 -1.46945 1.5
      vertex 17.1 -2.5 1.5
    endloop
  endfacet
  facet normal -0 0 1
    outer loop
      vertex 15.6601 -3.54616 1.5
      vertex 22.1101 -5.64656 1.5
      vertex 16.3399 -3.54616 1.5
    endloop
  endfacet
  facet normal 0 0 1
    outer loop
      vertex 19.2275 -2.37764 1.5
      vertex 18.5305 -2.02254 1.5
      vertex 16.8899 -3.14656 1.5
    endloop
  endfacet
  facet normal 0 0 1
    outer loop
      vertex 22.1101 -5.64656 1.5
      vertex 15.6601 -3.54616 1.5
      vertex 22.6601 -6.04616 1.5
    endloop
  endfacet
  facet normal 0 0 1
    outer loop
      vertex 23.3399 -6.04616 1.5
      vertex 22.6601 -6.04616 1.5
      vertex 27 -7.5 1.5
    endloop
  endfacet
  facet normal 0 -0 1
    outer loop
      vertex 22.1101 -4.35342 1.5
      vertex 22.6601 -3.95383 1.5
      vertex 21.4695 -2.02254 1.5
    endloop
  endfacet
  facet normal 0 0 1
    outer loop
      vertex 19.2275 -2.37764 1.5
      vertex 16.8899 -3.14656 1.5
      vertex 21.9 -5 1.5
    endloop
  endfacet
  facet normal 0 0 1
    outer loop
      vertex 21.9 -5 1.5
      vertex 16.3399 -3.54616 1.5
      vertex 22.1101 -5.64656 1.5
    endloop
  endfacet
  facet normal 0 0 1
    outer loop
      vertex 22.1101 -4.35342 1.5
      vertex 20.7725 -2.37764 1.5
      vertex 20 -2.5 1.5
    endloop
  endfacet
  facet normal 0 -0 1
    outer loop
      vertex 22.6601 -3.95383 1.5
      vertex 23.3399 -3.95383 1.5
      vertex 22.0225 -1.46945 1.5
    endloop
  endfacet
  facet normal -0 -0 1
    outer loop
      vertex 24.1 -5 1.5
      vertex 27 -7.5 1.5
      vertex 23.8899 -4.35342 1.5
    endloop
  endfacet
  facet normal -0 0 1
    outer loop
      vertex 22.0225 -1.46945 1.5
      vertex 23.3399 -3.95383 1.5
      vertex 22.3776 -0.772537 1.5
    endloop
  endfacet
  facet normal -0 0 1
    outer loop
      vertex 22.3776 -0.772537 1.5
      vertex 23.8899 -4.35342 1.5
      vertex 22.5 0 1.5
    endloop
  endfacet
  facet normal -0 0 1
    outer loop
      vertex 23.8899 -5.64656 1.5
      vertex 27 -7.5 1.5
      vertex 24.1 -5 1.5
    endloop
  endfacet
  facet normal -0 0 1
    outer loop
      vertex 23.3399 -6.04616 1.5
      vertex 27 -7.5 1.5
      vertex 23.8899 -5.64656 1.5
    endloop
  endfacet
  facet normal 0 -1 0
    outer loop
      vertex 27 -7.5 0
      vertex -7 -7.5 1.5
      vertex -7 -7.5 0
    endloop
  endfacet
  facet normal 0 -1 0
    outer loop
      vertex 27 -7.5 0
      vertex 27 -7.5 1.5
      vertex -7 -7.5 1.5
    endloop
  endfacet
  facet normal 1 0 0
    outer loop
      vertex 27 7.5 0
      vertex 27 -7.5 1.5
      vertex 27 -7.5 0
    endloop
  endfacet
  facet normal 1 0 -0
    outer loop
      vertex 27 7.5 0
      vertex 27 7.5 1.5
      vertex 27 -7.5 1.5
    endloop
  endfacet
  facet normal 0 1 0
    outer loop
      vertex -7 7.5 0
      vertex 27 7.5 1.5
      vertex 27 7.5 0
    endloop
  endfacet
  facet normal 0 1 0
    outer loop
      vertex -7 7.5 0
      vertex -7 7.5 1.5
      vertex 27 7.5 1.5
    endloop
  endfacet
  facet normal -1 0 0
    outer loop
      vertex -7 -7.5 0
      vertex -7 7.5 1.5
      vertex -7 7.5 0
    endloop
  endfacet
  facet normal -1 0 0
    outer loop
      vertex -7 -7.5 0
      vertex -7 -7.5 1.5
      vertex -7 7.5 1.5
    endloop
  endfacet
  facet normal 0.336337 0.941742 -0
    outer loop
      vertex -4.3399 -3.54616 0
      vertex -4.3399 -3.54616 1.5
      vertex 2.66008 -6.04616 0
    endloop
  endfacet
  facet normal 0.336337 0.941742 0
    outer loop
      vertex 2.66008 -6.04616 1.5
      vertex 2.66008 -6.04616 0
      vertex -4.3399 -3.54616 1.5
    endloop
  endfacet
  facet normal 0.58778 0.809021 -0
    outer loop
      vertex -4.88991 -3.14656 0
      vertex -4.88991 -3.14656 1.5
      vertex -4.3399 -3.54616 0
    endloop
  endfacet
  facet normal 0.58778 0.809021 0
    outer loop
      vertex -4.3399 -3.54616 1.5
      vertex -4.3399 -3.54616 0
      vertex -4.88991 -3.14656 1.5
    endloop
  endfacet
  facet normal 0.951057 0.309017 -0
    outer loop
      vertex -5.09999 -2.5 0
      vertex -5.09999 -2.5 1.5
      vertex -4.88991 -3.14656 0
    endloop
  endfacet
  facet normal 0.951057 0.309017 0
    outer loop
      vertex -4.88991 -3.14656 1.5
      vertex -4.88991 -3.14656 0
      vertex -5.09999 -2.5 1.5
    endloop
  endfacet
  facet normal 0.951059 -0.309008 0
    outer loop
      vertex -4.88991 -1.85342 0
      vertex -4.88991 -1.85342 1.5
      vertex -5.09999 -2.5 0
    endloop
  endfacet
  facet normal 0.951059 -0.309008 0
    outer loop
      vertex -5.09999 -2.5 1.5
      vertex -5.09999 -2.5 0
      vertex -4.88991 -1.85342 1.5
    endloop
  endfacet
  facet normal 0.757091 -0.653309 0
    outer loop
      vertex -2.02254 1.46945 0
      vertex -2.02254 1.46945 1.5
      vertex -4.88991 -1.85342 0
    endloop
  endfacet
  facet normal 0.757091 -0.653309 0
    outer loop
      vertex -4.88991 -1.85342 1.5
      vertex -4.88991 -1.85342 0
      vertex -2.02254 1.46945 1.5
    endloop
  endfacet
  facet normal 0.707107 -0.707107 0
    outer loop
      vertex -1.46945 2.02254 0
      vertex -1.46945 2.02254 1.5
      vertex -2.02254 1.46945 0
    endloop
  endfacet
  facet normal 0.707107 -0.707107 0
    outer loop
      vertex -2.02254 1.46945 1.5
      vertex -2.02254 1.46945 0
      vertex -1.46945 2.02254 1.5
    endloop
  endfacet
  facet normal 0.453996 -0.891004 0
    outer loop
      vertex -0.772537 2.37764 0
      vertex -0.772537 2.37764 1.5
      vertex -1.46945 2.02254 0
    endloop
  endfacet
  facet normal 0.453996 -0.891004 0
    outer loop
      vertex -1.46945 2.02254 1.5
      vertex -1.46945 2.02254 0
      vertex -0.772537 2.37764 1.5
    endloop
  endfacet
  facet normal 0.156437 -0.987688 0
    outer loop
      vertex 0 2.5 0
      vertex 0 2.5 1.5
      vertex -0.772537 2.37764 0
    endloop
  endfacet
  facet normal 0.156437 -0.987688 0
    outer loop
      vertex -0.772537 2.37764 1.5
      vertex -0.772537 2.37764 0
      vertex 0 2.5 1.5
    endloop
  endfacet
  facet normal -0.156437 -0.987688 0
    outer loop
      vertex 0.772537 2.37764 0
      vertex 0.772537 2.37764 1.5
      vertex 0 2.5 0
    endloop
  endfacet
  facet normal -0.156437 -0.987688 -0
    outer loop
      vertex 0 2.5 1.5
      vertex 0 2.5 0
      vertex 0.772537 2.37764 1.5
    endloop
  endfacet
  facet normal -0.453996 -0.891004 0
    outer loop
      vertex 1.46945 2.02254 0
      vertex 1.46945 2.02254 1.5
      vertex 0.772537 2.37764 0
    endloop
  endfacet
  facet normal -0.453996 -0.891004 -0
    outer loop
      vertex 0.772537 2.37764 1.5
      vertex 0.772537 2.37764 0
      vertex 1.46945 2.02254 1.5
    endloop
  endfacet
  facet normal -0.707107 -0.707107 0
    outer loop
      vertex 2.02254 1.46945 0
      vertex 2.02254 1.46945 1.5
      vertex 1.46945 2.02254 0
    endloop
  endfacet
  facet normal -0.707107 -0.707107 -0
    outer loop
      vertex 1.46945 2.02254 1.5
      vertex 1.46945 2.02254 0
      vertex 2.02254 1.46945 1.5
    endloop
  endfacet
  facet normal -0.891004 -0.453996 0
    outer loop
      vertex 2.37764 0.772537 0
      vertex 2.37764 0.772537 1.5
      vertex 2.02254 1.46945 0
    endloop
  endfacet
  facet normal -0.891004 -0.453996 -0
    outer loop
      vertex 2.02254 1.46945 1.5
      vertex 2.02254 1.46945 0
      vertex 2.37764 0.772537 1.5
    endloop
  endfacet
  facet normal -0.958255 -0.285914 0
    outer loop
      vertex 4.09999 -5 0
      vertex 4.09999 -5 1.5
      vertex 2.37764 0.772537 0
    endloop
  endfacet
  facet normal -0.958255 -0.285914 -0
    outer loop
      vertex 2.37764 0.772537 1.5
      vertex 2.37764 0.772537 0
      vertex 4.09999 -5 1.5
    endloop
  endfacet
  facet normal -0.951057 0.309017 0
    outer loop
      vertex 3.88991 -5.64656 0
      vertex 3.88991 -5.64656 1.5
      vertex 4.09999 -5 0
    endloop
  endfacet
  facet normal -0.951057 0.309017 0
    outer loop
      vertex 4.09999 -5 1.5
      vertex 4.09999 -5 0
      vertex 3.88991 -5.64656 1.5
    endloop
  endfacet
  facet normal -0.58778 0.809021 0
    outer loop
      vertex 3.3399 -6.04616 0
      vertex 3.3399 -6.04616 1.5
      vertex 3.88991 -5.64656 0
    endloop
  endfacet
  facet normal -0.58778 0.809021 0
    outer loop
      vertex 3.88991 -5.64656 1.5
      vertex 3.88991 -5.64656 0
      vertex 3.3399 -6.04616 1.5
    endloop
  endfacet
  facet normal 0 1 0
    outer loop
      vertex 2.66008 -6.04616 0
      vertex 2.66008 -6.04616 1.5
      vertex 3.3399 -6.04616 0
    endloop
  endfacet
  facet normal 0 1 0
    outer loop
      vertex 3.3399 -6.04616 1.5
      vertex 3.3399 -6.04616 0
      vertex 2.66008 -6.04616 1.5
    endloop
  endfacet
  facet normal 0.453951 0.891027 -0
    outer loop
      vertex 18.5305 -2.02254 0
      vertex 18.5305 -2.02254 1.5
      vertex 19.2275 -2.37764 0
    endloop
  endfacet
  facet normal 0.453951 0.891027 0
    outer loop
      vertex 19.2275 -2.37764 1.5
      vertex 19.2275 -2.37764 0
      vertex 18.5305 -2.02254 1.5
    endloop
  endfacet
  facet normal 0.707164 0.707049 -0
    outer loop
      vertex 17.9775 -1.46945 0
      vertex 17.9775 -1.46945 1.5
      vertex 18.5305 -2.02254 0
    endloop
  endfacet
  facet normal 0.707164 0.707049 0
    outer loop
      vertex 18.5305 -2.02254 1.5
      vertex 18.5305 -2.02254 0
      vertex 17.9775 -1.46945 1.5
    endloop
  endfacet
  facet normal 0.891004 0.453996 -0
    outer loop
      vertex 17.6224 -0.772537 0
      vertex 17.6224 -0.772537 1.5
      vertex 17.9775 -1.46945 0
    endloop
  endfacet
  facet normal 0.891004 0.453996 0
    outer loop
      vertex 17.9775 -1.46945 1.5
      vertex 17.9775 -1.46945 0
      vertex 17.6224 -0.772537 1.5
    endloop
  endfacet
  facet normal 0.98768 0.156487 -0
    outer loop
      vertex 17.5 0 0
      vertex 17.5 0 1.5
      vertex 17.6224 -0.772537 0
    endloop
  endfacet
  facet normal 0.98768 0.156487 0
    outer loop
      vertex 17.6224 -0.772537 1.5
      vertex 17.6224 -0.772537 0
      vertex 17.5 0 1.5
    endloop
  endfacet
  facet normal 0.98768 -0.156487 0
    outer loop
      vertex 17.6224 0.772537 0
      vertex 17.6224 0.772537 1.5
      vertex 17.5 0 0
    endloop
  endfacet
  facet normal 0.98768 -0.156487 0
    outer loop
      vertex 17.5 0 1.5
      vertex 17.5 0 0
      vertex 17.6224 0.772537 1.5
    endloop
  endfacet
  facet normal 0.891004 -0.453996 0
    outer loop
      vertex 17.9775 1.46945 0
      vertex 17.9775 1.46945 1.5
      vertex 17.6224 0.772537 0
    endloop
  endfacet
  facet normal 0.891004 -0.453996 0
    outer loop
      vertex 17.6224 0.772537 1.5
      vertex 17.6224 0.772537 0
      vertex 17.9775 1.46945 1.5
    endloop
  endfacet
  facet normal 0.707164 -0.707049 0
    outer loop
      vertex 18.5305 2.02254 0
      vertex 18.5305 2.02254 1.5
      vertex 17.9775 1.46945 0
    endloop
  endfacet
  facet normal 0.707164 -0.707049 0
    outer loop
      vertex 17.9775 1.46945 1.5
      vertex 17.9775 1.46945 0
      vertex 18.5305 2.02254 1.5
    endloop
  endfacet
  facet normal 0.453951 -0.891027 0
    outer loop
      vertex 19.2275 2.37764 0
      vertex 19.2275 2.37764 1.5
      vertex 18.5305 2.02254 0
    endloop
  endfacet
  facet normal 0.453951 -0.891027 0
    outer loop
      vertex 18.5305 2.02254 1.5
      vertex 18.5305 2.02254 0
      vertex 19.2275 2.37764 1.5
    endloop
  endfacet
  facet normal 0.156444 -0.987687 0
    outer loop
      vertex 20 2.5 0
      vertex 20 2.5 1.5
      vertex 19.2275 2.37764 0
    endloop
  endfacet
  facet normal 0.156444 -0.987687 0
    outer loop
      vertex 19.2275 2.37764 1.5
      vertex 19.2275 2.37764 0
      vertex 20 2.5 1.5
    endloop
  endfacet
  facet normal -0.156444 -0.987687 0
    outer loop
      vertex 20.7725 2.37764 0
      vertex 20.7725 2.37764 1.5
      vertex 20 2.5 0
    endloop
  endfacet
  facet normal -0.156444 -0.987687 -0
    outer loop
      vertex 20 2.5 1.5
      vertex 20 2.5 0
      vertex 20.7725 2.37764 1.5
    endloop
  endfacet
  facet normal -0.453951 -0.891027 0
    outer loop
      vertex 21.4695 2.02254 0
      vertex 21.4695 2.02254 1.5
      vertex 20.7725 2.37764 0
    endloop
  endfacet
  facet normal -0.453951 -0.891027 -0
    outer loop
      vertex 20.7725 2.37764 1.5
      vertex 20.7725 2.37764 0
      vertex 21.4695 2.02254 1.5
    endloop
  endfacet
  facet normal -0.707164 -0.707049 0
    outer loop
      vertex 22.0225 1.46945 0
      vertex 22.0225 1.46945 1.5
      vertex 21.4695 2.02254 0
    endloop
  endfacet
  facet normal -0.707164 -0.707049 -0
    outer loop
      vertex 21.4695 2.02254 1.5
      vertex 21.4695 2.02254 0
      vertex 22.0225 1.46945 1.5
    endloop
  endfacet
  facet normal -0.891004 -0.453996 0
    outer loop
      vertex 22.3776 0.772537 0
      vertex 22.3776 0.772537 1.5
      vertex 22.0225 1.46945 0
    endloop
  endfacet
  facet normal -0.891004 -0.453996 -0
    outer loop
      vertex 22.0225 1.46945 1.5
      vertex 22.0225 1.46945 0
      vertex 22.3776 0.772537 1.5
    endloop
  endfacet
  facet normal -0.98768 -0.156487 0
    outer loop
      vertex 22.5 0 0
      vertex 22.5 0 1.5
      vertex 22.3776 0.772537 0
    endloop
  endfacet
  facet normal -0.98768 -0.156487 -0
    outer loop
      vertex 22.3776 0.772537 1.5
      vertex 22.3776 0.772537 0
      vertex 22.5 0 1.5
    endloop
  endfacet
  facet normal -0.98768 0.156487 0
    outer loop
      vertex 22.3776 -0.772537 0
      vertex 22.3776 -0.772537 1.5
      vertex 22.5 0 0
    endloop
  endfacet
  facet normal -0.98768 0.156487 0
    outer loop
      vertex 22.5 0 1.5
      vertex 22.5 0 0
      vertex 22.3776 -0.772537 1.5
    endloop
  endfacet
  facet normal -0.891004 0.453996 0
    outer loop
      vertex 22.0225 -1.46945 0
      vertex 22.0225 -1.46945 1.5
      vertex 22.3776 -0.772537 0
    endloop
  endfacet
  facet normal -0.891004 0.453996 0
    outer loop
      vertex 22.3776 -0.772537 1.5
      vertex 22.3776 -0.772537 0
      vertex 22.0225 -1.46945 1.5
    endloop
  endfacet
  facet normal -0.707164 0.707049 0
    outer loop
      vertex 21.4695 -2.02254 0
      vertex 21.4695 -2.02254 1.5
      vertex 22.0225 -1.46945 0
    endloop
  endfacet
  facet normal -0.707164 0.707049 0
    outer loop
      vertex 22.0225 -1.46945 1.5
      vertex 22.0225 -1.46945 0
      vertex 21.4695 -2.02254 1.5
    endloop
  endfacet
  facet normal -0.453951 0.891027 0
    outer loop
      vertex 20.7725 -2.37764 0
      vertex 20.7725 -2.37764 1.5
      vertex 21.4695 -2.02254 0
    endloop
  endfacet
  facet normal -0.453951 0.891027 0
    outer loop
      vertex 21.4695 -2.02254 1.5
      vertex 21.4695 -2.02254 0
      vertex 20.7725 -2.37764 1.5
    endloop
  endfacet
  facet normal -0.156444 0.987687 0
    outer loop
      vertex 20 -2.5 0
      vertex 20 -2.5 1.5
      vertex 20.7725 -2.37764 0
    endloop
  endfacet
  facet normal -0.156444 0.987687 0
    outer loop
      vertex 20.7725 -2.37764 1.5
      vertex 20.7725 -2.37764 0
      vertex 20 -2.5 1.5
    endloop
  endfacet
  facet normal 0.156444 0.987687 -0
    outer loop
      vertex 19.2275 -2.37764 0
      vertex 19.2275 -2.37764 1.5
      vertex 20 -2.5 0
    endloop
  endfacet
  facet normal 0.156444 0.987687 0
    outer loop
      vertex 20 -2.5 1.5
      vertex 20 -2.5 0
      vertex 19.2275 -2.37764 1.5
    endloop
  endfacet
  facet normal 0.587787 0.809016 -0
    outer loop
      vertex 15.1101 -3.14656 0
      vertex 15.1101 -3.14656 1.5
      vertex 15.6601 -3.54616 0
    endloop
  endfacet
  facet normal 0.587787 0.809016 0
    outer loop
      vertex 15.6601 -3.54616 1.5
      vertex 15.6601 -3.54616 0
      vertex 15.1101 -3.14656 1.5
    endloop
  endfacet
  facet normal 0.951048 0.309043 -0
    outer loop
      vertex 14.9 -2.5 0
      vertex 14.9 -2.5 1.5
      vertex 15.1101 -3.14656 0
    endloop
  endfacet
  facet normal 0.951048 0.309043 0
    outer loop
      vertex 15.1101 -3.14656 1.5
      vertex 15.1101 -3.14656 0
      vertex 14.9 -2.5 1.5
    endloop
  endfacet
  facet normal 0.951051 -0.309035 0
    outer loop
      vertex 15.1101 -1.85342 0
      vertex 15.1101 -1.85342 1.5
      vertex 14.9 -2.5 0
    endloop
  endfacet
  facet normal 0.951051 -0.309035 0
    outer loop
      vertex 14.9 -2.5 1.5
      vertex 14.9 -2.5 0
      vertex 15.1101 -1.85342 1.5
    endloop
  endfacet
  facet normal 0.587777 -0.809023 0
    outer loop
      vertex 15.6601 -1.45383 0
      vertex 15.6601 -1.45383 1.5
      vertex 15.1101 -1.85342 0
    endloop
  endfacet
  facet normal 0.587777 -0.809023 0
    outer loop
      vertex 15.1101 -1.85342 1.5
      vertex 15.1101 -1.85342 0
      vertex 15.6601 -1.45383 1.5
    endloop
  endfacet
  facet normal 0 -1 0
    outer loop
      vertex 16.3399 -1.45383 0
      vertex 16.3399 -1.45383 1.5
      vertex 15.6601 -1.45383 0
    endloop
  endfacet
  facet normal 0 -1 0
    outer loop
      vertex 15.6601 -1.45383 1.5
      vertex 15.6601 -1.45383 0
      vertex 16.3399 -1.45383 1.5
    endloop
  endfacet
  facet normal -0.587777 -0.809023 0
    outer loop
      vertex 16.8899 -1.85342 0
      vertex 16.8899 -1.85342 1.5
      vertex 16.3399 -1.45383 0
    endloop
  endfacet
  facet normal -0.587777 -0.809023 -0
    outer loop
      vertex 16.3399 -1.45383 1.5
      vertex 16.3399 -1.45383 0
      vertex 16.8899 -1.85342 1.5
    endloop
  endfacet
  facet normal -0.951051 -0.309035 0
    outer loop
      vertex 17.1 -2.5 0
      vertex 17.1 -2.5 1.5
      vertex 16.8899 -1.85342 0
    endloop
  endfacet
  facet normal -0.951051 -0.309035 -0
    outer loop
      vertex 16.8899 -1.85342 1.5
      vertex 16.8899 -1.85342 0
      vertex 17.1 -2.5 1.5
    endloop
  endfacet
  facet normal -0.951048 0.309043 0
    outer loop
      vertex 16.8899 -3.14656 0
      vertex 16.8899 -3.14656 1.5
      vertex 17.1 -2.5 0
    endloop
  endfacet
  facet normal -0.951048 0.309043 0
    outer loop
      vertex 17.1 -2.5 1.5
      vertex 17.1 -2.5 0
      vertex 16.8899 -3.14656 1.5
    endloop
  endfacet
  facet normal -0.587787 0.809016 0
    outer loop
      vertex 16.3399 -3.54616 0
      vertex 16.3399 -3.54616 1.5
      vertex 16.8899 -3.14656 0
    endloop
  endfacet
  facet normal -0.587787 0.809016 0
    outer loop
      vertex 16.8899 -3.14656 1.5
      vertex 16.8899 -3.14656 0
      vertex 16.3399 -3.54616 1.5
    endloop
  endfacet
  facet normal 0 1 0
    outer loop
      vertex 15.6601 -3.54616 0
      vertex 15.6601 -3.54616 1.5
      vertex 16.3399 -3.54616 0
    endloop
  endfacet
  facet normal 0 1 0
    outer loop
      vertex 16.3399 -3.54616 1.5
      vertex 16.3399 -3.54616 0
      vertex 15.6601 -3.54616 1.5
    endloop
  endfacet
  facet normal 0.587787 0.809016 -0
    outer loop
      vertex 22.1101 -5.64656 0
      vertex 22.1101 -5.64656 1.5
      vertex 22.6601 -6.04616 0
    endloop
  endfacet
  facet normal 0.587787 0.809016 0
    outer loop
      vertex 22.6601 -6.04616 1.5
      vertex 22.6601 -6.04616 0
      vertex 22.1101 -5.64656 1.5
    endloop
  endfacet
  facet normal 0.951048 0.309043 -0
    outer loop
      vertex 21.9 -5 0
      vertex 21.9 -5 1.5
      vertex 22.1101 -5.64656 0
    endloop
  endfacet
  facet normal 0.951048 0.309043 0
    outer loop
      vertex 22.1101 -5.64656 1.5
      vertex 22.1101 -5.64656 0
      vertex 21.9 -5 1.5
    endloop
  endfacet
  facet normal 0.951051 -0.309035 0
    outer loop
      vertex 22.1101 -4.35342 0
      vertex 22.1101 -4.35342 1.5
      vertex 21.9 -5 0
    endloop
  endfacet
  facet normal 0.951051 -0.309035 0
    outer loop
      vertex 21.9 -5 1.5
      vertex 21.9 -5 0
      vertex 22.1101 -4.35342 1.5
    endloop
  endfacet
  facet normal 0.587777 -0.809023 0
    outer loop
      vertex 22.6601 -3.95383 0
      vertex 22.6601 -3.95383 1.5
      vertex 22.1101 -4.35342 0
    endloop
  endfacet
  facet normal 0.587777 -0.809023 0
    outer loop
      vertex 22.1101 -4.35342 1.5
      vertex 22.1101 -4.35342 0
      vertex 22.6601 -3.95383 1.5
    endloop
  endfacet
  facet normal 0 -1 0
    outer loop
      vertex 23.3399 -3.95383 0
      vertex 23.3399 -3.95383 1.5
      vertex 22.6601 -3.95383 0
    endloop
  endfacet
  facet normal 0 -1 0
    outer loop
      vertex 22.6601 -3.95383 1.5
      vertex 22.6601 -3.95383 0
      vertex 23.3399 -3.95383 1.5
    endloop
  endfacet
  facet normal -0.587777 -0.809023 0
    outer loop
      vertex 23.8899 -4.35342 0
      vertex 23.8899 -4.35342 1.5
      vertex 23.3399 -3.95383 0
    endloop
  endfacet
  facet normal -0.587777 -0.809023 -0
    outer loop
      vertex 23.3399 -3.95383 1.5
      vertex 23.3399 -3.95383 0
      vertex 23.8899 -4.35342 1.5
    endloop
  endfacet
  facet normal -0.951051 -0.309035 0
    outer loop
      vertex 24.1 -5 0
      vertex 24.1 -5 1.5
      vertex 23.8899 -4.35342 0
    endloop
  endfacet
  facet normal -0.951051 -0.309035 -0
    outer loop
      vertex 23.8899 -4.35342 1.5
      vertex 23.8899 -4.35342 0
      vertex 24.1 -5 1.5
    endloop
  endfacet
  facet normal -0.951048 0.309043 0
    outer loop
      vertex 23.8899 -5.64656 0
      vertex 23.8899 -5.64656 1.5
      vertex 24.1 -5 0
    endloop
  endfacet
  facet normal -0.951048 0.309043 0
    outer loop
      vertex 24.1 -5 1.5
      vertex 24.1 -5 0
      vertex 23.8899 -5.64656 1.5
    endloop
  endfacet
  facet normal -0.587787 0.809016 0
    outer loop
      vertex 23.3399 -6.04616 0
      vertex 23.3399 -6.04616 1.5
      vertex 23.8899 -5.64656 0
    endloop
  endfacet
  facet normal -0.587787 0.809016 0
    outer loop
      vertex 23.8899 -5.64656 1.5
      vertex 23.8899 -5.64656 0
      vertex 23.3399 -6.04616 1.5
    endloop
  endfacet
  facet normal 0 1 0
    outer loop
      vertex 22.6601 -6.04616 0
      vertex 22.6601 -6.04616 1.5
      vertex 23.3399 -6.04616 0
    endloop
  endfacet
  facet normal 0 1 0
    outer loop
      vertex 23.3399 -6.04616 1.5
      vertex 23.3399 -6.04616 0
      vertex 22.6601 -6.04616 1.5
    endloop
  endfacet
endsolid OpenSCAD_Model
